<svg xmlns="http://www.w3.org/2000/svg" width="17" height="16" viewBox="0 0 17 16">
    <path data-name="Path 38880" d="M-1848.266 1441.137c-.035-.163-.026-.138-.068-.3a3.387 3.387 0 0 0-.538-1.133 3.175 3.175 0 0 0-.664-.672 3.413 3.413 0 0 0-2.037-.672H-1861.812a3.2 3.2 0 0 0-1.645.391 4.2 4.2 0 0 0-.428.28 3.321 3.321 0 0 0-.687.674 3.2 3.2 0 0 0-.632 1.954v.685c0 .456-.006.914-.008 1.37-.008 2.452 0 4.9.006 7.355a3.326 3.326 0 0 0 1.324 2.629 3.186 3.186 0 0 0 1.55.632.859.859 0 0 1 .11.03h11.018c.151-.03.3-.058.45-.094a3.264 3.264 0 0 0 1.221-.579 3.352 3.352 0 0 0 1.287-2.245.5.5 0 0 1 .03-.093v-9.949c-.004-.027-.046-.24-.05-.263zm-10.7 7.262a.3.3 0 0 1 .346 0 3.785 3.785 0 0 0 3.9 0 .318.318 0 0 1 .37-.008 4.973 4.973 0 0 1 2.6 4.331 1.073 1.073 0 0 0 .047.274h-9.923a1.193 1.193 0 0 0 .039-.262 4.993 4.993 0 0 1 2.623-4.334zm-.4-3.5a2.762 2.762 0 0 1 .793-1.947 2.651 2.651 0 0 1 1.9-.8 2.659 2.659 0 0 1 1.913.82 2.741 2.741 0 0 1 .78 1.942 2.746 2.746 0 0 1-2.693 2.742h-.013a2.641 2.641 0 0 1-1.892-.8 2.765 2.765 0 0 1-.786-1.962zm9.827-2.551v1.37h-.011v7.227a2.02 2.02 0 0 1-.932 1.765v-.006a6.119 6.119 0 0 0-1.568-4.057 10.334 10.334 0 0 0-1.023-.944 24.374 24.374 0 0 1-.423-.361 4.125 4.125 0 0 0-.575-5.5 3.892 3.892 0 0 0-5.2 0 4.111 4.111 0 0 0-.551 5.518l-.29.22a8.357 8.357 0 0 0-.732.591 6.214 6.214 0 0 0-2.008 4.594 2.006 2.006 0 0 1-1.033-1.827v-8.6h.027a3.51 3.51 0 0 1-.027-.227 2.666 2.666 0 0 1 0-.5 2.007 2.007 0 0 1 2.167-1.912h10.042a2.028 2.028 0 0 1 2.141 2.2 3.462 3.462 0 0 1-.002.445z" transform="translate(1865.22 -1438.36)" style="fill:rgba(22,20,41,.8)"/>
</svg>
