<svg xmlns="http://www.w3.org/2000/svg" width="16" height="16" viewBox="0 0 16 16">
    <g data-name="Group 25688">
        <path data-name="Path 38873" d="M-1802.833 1495.457h-10.367a.85.85 0 0 0-.1-.029 3.078 3.078 0 0 1-2.705-3.011c-.009-2.9-.018-5.792 0-8.688a2.962 2.962 0 0 1 1.644-2.685 3.068 3.068 0 0 1 1.547-.362h.486v-.617a.616.616 0 0 1 .442-.58.622.622 0 0 1 .8.588c.007.2 0 .4 0 .6h6.125v-.551a.632.632 0 0 1 .619-.666.628.628 0 0 1 .63.669v.558h.53a3.1 3.1 0 0 1 3.048 2.288c.044.159.072.322.108.483v9.221a.474.474 0 0 0-.028.086 3.083 3.083 0 0 1-2.36 2.608c-.135.031-.278.059-.419.088zm-11.933-9.831v6.672a1.84 1.84 0 0 0 1.9 1.906h9.7a1.841 1.841 0 0 0 1.9-1.906v-6.672zm9.811-3.68h-6.126v1.2a.618.618 0 0 1-.635.631.617.617 0 0 1-.613-.635v-1.047c0-.05-.005-.1-.008-.146a1.982 1.982 0 0 0-2.4 2.414h13.454a1.985 1.985 0 0 0-2.42-2.405c0 .388.013.779-.007 1.168a.87.87 0 0 1-.148.429.581.581 0 0 1-.674.189.614.614 0 0 1-.418-.582c-.009-.402-.006-.803-.006-1.216z" transform="translate(1816.022 -1479.457)" style="fill:rgba(22,20,41,.8)"/>
        <path data-name="Path 38874" d="M-1810.109 1497.068h.625a.643.643 0 0 1 .646.639.641.641 0 0 1-.642.643c-.422.006-.845.007-1.267 0a.644.644 0 0 1-.639-.647.644.644 0 0 1 .651-.634c.21-.003.418-.001.626-.001z" transform="translate(1814.445 -1485.41)" style="fill:rgba(22,20,41,.8)"/>
        <path data-name="Path 38875" d="M-1798.976 1497.069h.625a.642.642 0 0 1 .636.633.64.64 0 0 1-.622.647c-.433.01-.866.009-1.3 0a.638.638 0 0 1-.627-.641.641.641 0 0 1 .645-.64c.219-.002.429 0 .643.001z" transform="translate(1810.662 -1485.41)" style="fill:rgba(22,20,41,.8)"/>
        <path data-name="Path 38876" d="M-1798.981 1491.511h.625a.644.644 0 0 1 .641.644.641.641 0 0 1-.633.637c-.427.007-.855.007-1.281 0a.639.639 0 0 1-.632-.637.641.641 0 0 1 .64-.644c.213-.003.421 0 .64 0z" transform="translate(1810.662 -1483.531)" style="fill:rgba(22,20,41,.8)"/>
        <path data-name="Path 38877" d="M-1810.1 1491.511h.625a.643.643 0 0 1 .642.643.64.64 0 0 1-.631.639q-.64.01-1.282 0a.643.643 0 0 1-.635-.65.645.645 0 0 1 .639-.63c.21-.005.423-.002.642-.002z" transform="translate(1814.445 -1483.531)" style="fill:rgba(22,20,41,.8)"/>
        <path data-name="Path 38878" d="M-1804.563 1492.794h-.625a.645.645 0 0 1-.642-.645.642.642 0 0 1 .648-.637q.625-.007 1.25 0a.637.637 0 0 1 .647.635.64.64 0 0 1-.638.646c-.213.007-.426.001-.64.001z" transform="translate(1812.556 -1483.531)" style="fill:rgba(22,20,41,.8)"/>
        <path data-name="Path 38879" d="M-1804.552 1497.069h.625a.639.639 0 0 1 .642.641.64.64 0 0 1-.643.641 48.57 48.57 0 0 1-1.266 0 .643.643 0 0 1-.637-.649.642.642 0 0 1 .637-.632c.215-.005.428-.001.642-.001z" transform="translate(1812.556 -1485.41)" style="fill:rgba(22,20,41,.8)"/>
    </g>
</svg>
