<svg xmlns="http://www.w3.org/2000/svg" width="30.224" height="29" viewBox="0 0 30.224 29">
    <g data-name="Group 25680">
        <path data-name="Path 38866" d="M-1298.669 1017.162v1.509c-.048.333-.089.667-.145 1a11.126 11.126 0 0 1-3.9 6.82 1.229 1.229 0 0 0-.46 1.1 4.061 4.061 0 0 0 .087.877c.209.771.443 1.531.688 2.289a1.372 1.372 0 0 1-.177 1.292 1.013 1.013 0 0 1-1.1.451 7.312 7.312 0 0 1-1.156-.347 17.158 17.158 0 0 1-3.638-2.084 2 2 0 0 0-1.845-.515.362.362 0 0 1-.088 0 13.092 13.092 0 0 1-6.339-1.269 11.878 11.878 0 0 1-5.631-5.5 10.644 10.644 0 0 1-.728-7.911 11.378 11.378 0 0 1 5.112-6.683 12.691 12.691 0 0 1 9.225-1.751 12.285 12.285 0 0 1 7.153 3.942 10.879 10.879 0 0 1 2.591 4.831c.16.637.239 1.298.351 1.949zm-17.637.443a1.955 1.955 0 0 0 1.852 2.048 1.978 1.978 0 0 0 1.821-2.055 1.983 1.983 0 0 0-1.843-2.067 1.965 1.965 0 0 0-1.83 2.069zm8.594 2.048a1.982 1.982 0 0 0 1.831-2.078 1.982 1.982 0 0 0-1.835-2.044 1.98 1.98 0 0 0-1.845 2.064 1.971 1.971 0 0 0 1.848 2.057z" transform="translate(1328.894 -1006.217)" style="fill:#28dea7"/>
        <path data-name="Path 38867" d="M-1322.624 1010.964c-.264.706-.579 1.381-.772 2.089a9.534 9.534 0 0 0 1.678 8.6 12.791 12.791 0 0 0 6.938 4.617 14.741 14.741 0 0 0 4.83.561c.147-.008.293-.011.438-.015a.778.778 0 0 1 .134.049c-.545.25-1.024.5-1.524.692a13.475 13.475 0 0 1-6.521.842 1.034 1.034 0 0 0-.712.168 25.2 25.2 0 0 1-3.952 2.147 7.532 7.532 0 0 1-1.258.368.669.669 0 0 1-.492-.122c-.173-.136-.073-.335.011-.507a6.867 6.867 0 0 0 .759-3.125v-.117a1.335 1.335 0 0 0-.6-1.191 8.922 8.922 0 0 1-3.716-5.524 8.151 8.151 0 0 1 1.63-6.8 10.474 10.474 0 0 1 3.129-2.732z" transform="translate(1327.56 -1002.095)" style="fill:#28dea7"/>
    </g>
</svg>
