<svg xmlns="http://www.w3.org/2000/svg" width="85.333" height="55.343" viewBox="0 0 85.333 55.343">
    <g data-name="Group 25684" style="opacity:.2">
        <path data-name="Path 38871" d="M-1915.124 1522.884a15.877 15.877 0 0 1 3.011-8.06 17.243 17.243 0 0 1 9.415-6.722 18.459 18.459 0 0 1 4.153-.694c.555-.037.776-.152.766-.754a18.811 18.811 0 0 1 4.005-11.959 19.046 19.046 0 0 1 6.08-5.188c.363-.2.723-.405 1.084-.609a26.219 26.219 0 0 1 4.541.083 19.179 19.179 0 0 1 9.945 4.516 19.465 19.465 0 0 1 6.18 9.68c.221.776.694.705 1.272.632a15.973 15.973 0 0 1 6.109.311 14.651 14.651 0 0 1 10.827 13.89c0 1.172.008 1.153 1.14 1.38a12.648 12.648 0 0 1 10.218 12.216 12.689 12.689 0 0 1-4.309 9.733 4.962 4.962 0 0 1-1.593 1.036c-18.661 0-37.323.048-55.985-.023a16.6 16.6 0 0 1-10.67-4.016 17.7 17.7 0 0 1-6.151-10.616 5.419 5.419 0 0 1-.038-.83c-.2-.31.054-.7-.163-1v-2.168c.205-.25-.031-.586.163-.838z" transform="translate(1915.287 -1487.05)" style="fill:#fafafb"/>
        <path data-name="Path 38872" d="M-1856.034 1543.234a16.268 16.268 0 0 0 3.823-3.978 12.419 12.419 0 0 0 1.849-6.113 11.994 11.994 0 0 0-2.654-8.175 11.9 11.9 0 0 0-7.923-4.549c-.53-.075-.8-.256-.775-.834a13.409 13.409 0 0 0-1.3-6.517 14.41 14.41 0 0 0-3.807-4.96 14.349 14.349 0 0 0-7.239-3.273 15.634 15.634 0 0 0-5.039.144c-.463.085-.542-.025-.652-.428a19.778 19.778 0 0 0-3.492-7.1 19.269 19.269 0 0 0-10.738-7.039 21.056 21.056 0 0 0-5.513-.5c-.29 0-.617.115-.867-.15a19.926 19.926 0 0 1 8.94-1.831 19.363 19.363 0 0 1 11.986 4.666 19.031 19.031 0 0 1 6.263 10.047c.157.613.547.5.93.413a12.366 12.366 0 0 1 7.024.4 14.35 14.35 0 0 1 10.047 11.719 14.7 14.7 0 0 1 .123 2.481c0 .48.073.713.646.8a12.245 12.245 0 0 1 7.414 3.914 12.12 12.12 0 0 1 3.142 10.262 11.91 11.91 0 0 1-3.461 6.932 12.26 12.26 0 0 1-8.727 3.669z" transform="translate(1929.042 -1487.909)" style="fill:#75ebba"/>
    </g>
</svg>
