<svg xmlns="http://www.w3.org/2000/svg" width="211.021" height="136.858" viewBox="0 0 211.021 136.858">
    <g data-name="Group 26436">
        <path data-name="Path 38871" d="M-1914.883 1573.026a39.267 39.267 0 0 1 7.447-19.931 42.643 42.643 0 0 1 23.281-16.624 45.647 45.647 0 0 1 10.269-1.715c1.373-.091 1.92-.376 1.9-1.864a46.512 46.512 0 0 1 9.9-29.573 47.091 47.091 0 0 1 15.036-12.831c.9-.495 1.787-1 2.68-1.507a64.842 64.842 0 0 1 11.23.2 47.43 47.43 0 0 1 24.593 11.168 48.138 48.138 0 0 1 15.283 23.937c.546 1.92 1.716 1.744 3.146 1.563a39.5 39.5 0 0 1 15.107.77 36.231 36.231 0 0 1 26.774 34.349c.009 2.9.019 2.851 2.818 3.412 15.625 3.146 25.33 16.865 25.268 30.21a31.379 31.379 0 0 1-10.656 24.07 12.273 12.273 0 0 1-3.939 2.561c-46.148.01-92.3.119-138.447-.057-9.838-.038-18.705-3.592-26.385-9.932-8.34-6.881-13.145-15.764-15.212-26.252a13.342 13.342 0 0 1-.095-2.052c-.5-.766.133-1.72-.4-2.481v-5.361c.506-.605-.079-1.437.402-2.06z" transform="translate(1915.287 -1484.413)" style="fill:#fafafb"/>
        <path data-name="Path 38872" d="M-1790.74 1624.724c3.551-2.9 7.02-5.86 9.452-9.836a30.713 30.713 0 0 0 4.572-15.118 29.66 29.66 0 0 0-6.563-20.216 29.421 29.421 0 0 0-19.594-11.248c-1.311-.186-1.986-.632-1.916-2.062a33.158 33.158 0 0 0-3.222-16.115 35.629 35.629 0 0 0-9.414-12.265 35.484 35.484 0 0 0-17.9-8.093 38.658 38.658 0 0 0-12.461.356c-1.145.21-1.34-.061-1.611-1.06a48.909 48.909 0 0 0-8.635-17.564 47.65 47.65 0 0 0-26.555-17.407 52.076 52.076 0 0 0-13.634-1.247c-.717.01-1.526.286-2.143-.37a49.275 49.275 0 0 1 22.108-4.529 47.888 47.888 0 0 1 29.639 11.539 47.066 47.066 0 0 1 15.488 24.845c.388 1.515 1.353 1.24 2.3 1.021a30.577 30.577 0 0 1 17.369 1c13.81 4.833 22.25 14.409 24.845 28.98a36.372 36.372 0 0 1 .3 6.134c.01 1.188.181 1.763 1.6 1.987a30.279 30.279 0 0 1 18.335 9.68 29.972 29.972 0 0 1 7.769 25.377 29.452 29.452 0 0 1-8.558 17.142 30.319 30.319 0 0 1-21.571 9.069z" transform="translate(1971.281 -1487.909)" style="fill:#28dea7"/>
    </g>
</svg>
