<svg xmlns="http://www.w3.org/2000/svg" width="17.997" height="18" viewBox="0 0 17.997 18">
    <g data-name="Group 25387">
        <path data-name="Path 38111" d="M289.468-199.854a9.008 9.008 0 0 1-9-8.994 9.007 9.007 0 0 1 8.993-9.006 9.006 9.006 0 0 1 9 8.994 9.007 9.007 0 0 1-8.993 9.006zm2.568-10.875h-5.1a18.455 18.455 0 0 0 0 3.751h5.1zm-.236-1.425c-.06-.282-.109-.547-.175-.809a7.583 7.583 0 0 0-1.218-2.864c-.64-.836-1.245-.833-1.891 0a5.934 5.934 0 0 0-.949 1.928c-.175.567-.31 1.146-.469 1.746zm-4.679 6.6c.081.359.146.7.236 1.039a7.2 7.2 0 0 0 1.176 2.655c.631.807 1.226.8 1.859 0a5.906 5.906 0 0 0 .966-1.949c.176-.566.31-1.145.469-1.746zm-1.643-5.178a.547.547 0 0 0-.093-.014h-3.111c-.147 0-.189.058-.219.192a7.654 7.654 0 0 0-.012 3.371c.039.183.11.236.3.234.976-.01 1.951 0 2.926-.005.076 0 .153-.009.214-.012zm7.968 3.773c1.083 0 2.163 0 3.242-.009.06 0 .156-.117.175-.195a7.426 7.426 0 0 0 .014-3.368c-.038-.175-.106-.222-.278-.221-.993.008-1.986 0-2.979 0a1.511 1.511 0 0 0-.175.018zm-.223-5.2h3.088a7.748 7.748 0 0 0-4.36-3.888 12.488 12.488 0 0 1 1.272 3.89zm0 6.6a12.5 12.5 0 0 1-1.27 3.892 7.736 7.736 0 0 0 4.358-3.892zm-6.326-10.46a7.692 7.692 0 0 0-4.286 3.862h3.06c.165-.66.3-1.316.5-1.95s.473-1.256.729-1.908zm-4.249 10.459c.484 1.479 3.077 3.78 4.286 3.816a12.421 12.421 0 0 1-1.235-3.816z" transform="translate(-280.463 217.854)" style="fill:#28dea7"/>
    </g>
</svg>
