<svg xmlns="http://www.w3.org/2000/svg" width="16" height="12" viewBox="0 0 16 12">
    <g data-name="Group 25726">
        <path data-name="Path 38887" d="M-973.7 1590.012c.153.1.258.163.36.23q3.077 2.054 6.156 4.106a2.406 2.406 0 0 0 2.963 0q3.092-2.06 6.182-4.124c.094-.062.19-.121.32-.2.007.119.015.206.015.294v6.723a1.484 1.484 0 0 1-1.595 1.6h-12.806a1.484 1.484 0 0 1-1.595-1.6v-6.722z" transform="translate(973.706 -1586.647)" style="fill:#28dea7"/>
        <path data-name="Path 38888" d="M-965.707 1586.448h6.464a1.474 1.474 0 0 1 1.534 1.534 1.44 1.44 0 0 1-.716 1.176q-2.794 1.856-5.583 3.721l-.8.536a1.484 1.484 0 0 1-1.778 0l-6.413-4.277a1.406 1.406 0 0 1-.633-1.646 1.477 1.477 0 0 1 1.436-1.045c1.79-.007 3.581 0 5.371 0z" style="fill:#28dea7" transform="translate(973.706 -1586.446)"/>
    </g>
</svg>
