<svg xmlns="http://www.w3.org/2000/svg" width="16.999" height="16.999" viewBox="0 0 16.999 16.999">
    <g data-name="Group 25724">
        <path data-name="Path 38868" d="M-831.736 924.085c-.288-.048-.579-.086-.866-.145a9.078 9.078 0 0 1-2.179-.8 17.235 17.235 0 0 1-6.7-5.9 13.428 13.428 0 0 1-1.744-3.558 4.59 4.59 0 0 1-.212-2.28 1.862 1.862 0 0 1 .495-.963c.45-.46.9-.919 1.368-1.364a1.188 1.188 0 0 1 1.813.005c.676.659 1.338 1.332 2 2a1.246 1.246 0 0 1 .421 1.09 1.45 1.45 0 0 1-.463.808c-.376.378-.755.752-1.133 1.129-.2.2-.2.247-.088.5a9.492 9.492 0 0 0 1.792 2.528 11.647 11.647 0 0 0 2.356 2c.3.188.622.339.935.508a.273.273 0 0 0 .355-.085c.387-.39.773-.782 1.166-1.167a2.176 2.176 0 0 1 .387-.312 1.117 1.117 0 0 1 1.344.1c.082.067.161.137.236.211.629.627 1.262 1.251 1.882 1.887a1.977 1.977 0 0 1 .385.535 1.034 1.034 0 0 1-.184 1.18 34.478 34.478 0 0 1-1.538 1.569 1.925 1.925 0 0 1-1.058.486c-.048.008-.1.023-.144.035z" transform="translate(843.497 -907.086)" style="fill:#28dea7"/>
        <path data-name="Path 38869" d="m-804.407 910.511-1.263.228a8.039 8.039 0 0 0-2.346-4.442 8.039 8.039 0 0 0-4.527-2.223l.175-1.266a9.149 9.149 0 0 1 2.282.614 9.328 9.328 0 0 1 3.507 2.531 9.276 9.276 0 0 1 1.975 3.7c.071.262.131.527.2.79z" transform="translate(821.406 -902.808)" style="fill:#28dea7"/>
        <path data-name="Path 38870" d="M-812.994 915.08a5.638 5.638 0 0 1 4.789 4.635l-1.255.216a4.361 4.361 0 0 0-1.271-2.4 4.369 4.369 0 0 0-2.437-1.2z" transform="translate(821.704 -911.626)" style="fill:#28dea7"/>
    </g>
</svg>
