<svg xmlns="http://www.w3.org/2000/svg" width="13.667" height="18.229" viewBox="0 0 13.667 18.229">
    <path data-name="Path 38889" d="M-857.441 1779.034a6.965 6.965 0 0 1 6.341-7.188 6.871 6.871 0 0 1 7.238 5.769 8.4 8.4 0 0 1-.672 4.578 21.049 21.049 0 0 1-4.17 6.18c-.465.5-.96.983-1.456 1.458a.557.557 0 0 1-.88.015 23.132 23.132 0 0 1-5.6-7.533 8.943 8.943 0 0 1-.801-3.279zm6.834-4.158a3.769 3.769 0 0 0-3.788 3.793 3.773 3.773 0 0 0 3.767 3.778 3.772 3.772 0 0 0 3.805-3.776 3.769 3.769 0 0 0-3.784-3.795z" transform="translate(857.441 -1771.825)" style="fill:#28dea7"/>
</svg>
