<svg xmlns="http://www.w3.org/2000/svg" width="57" height="50.433" viewBox="0 0 57 50.433">
    <g data-name="Group 25392">
        <path data-name="Union 9" d="M0 42.751C.064 30.672.028 18.592.02 6.513a6.312 6.312 0 0 1 1.22-3.884A6.414 6.414 0 0 1 6.722 0q11.914.02 23.831 0C36.8 0 43.051.015 49.3 0a6.193 6.193 0 0 1 5.521 2.734A15.7 15.7 0 0 1 56 5.512v38.375a13.226 13.226 0 0 1-.543 1.7 6.323 6.323 0 0 1-6.2 3.835q-13.884.007-27.766 0c-4.938 0-9.876-.019-14.813.005h-.04A6.529 6.529 0 0 1 0 42.751zm1.923-29.318v29.236a4.5 4.5 0 0 0 4.85 4.831q21.231 0 42.463-.006a5.909 5.909 0 0 0 1.563-.181 4.437 4.437 0 0 0 3.3-4.686V12.735H1.923zM6.481 1.9a4.379 4.379 0 0 0-4.449 3.667C1.869 7.258 2 8.979 2 10.733h52.064c0-1.549.039-3.058-.019-4.563a4.511 4.511 0 0 0-.425-1.725A4.427 4.427 0 0 0 49.273 1.9H6.6zM32.9 41.8a2 2 0 0 1-.692-.1.851.851 0 0 1-.569-.9.865.865 0 0 1 .671-.833 2.909 2.909 0 0 1 .7-.077h13.984c.932 0 1.428.355 1.407 1s-.466.91-1.401.91H32.9zm-24.283 0c-.991 0-1.3-.306-1.3-1.31q-.006-4.974 0-9.947v-9.837c0-1.053.277-1.332 1.318-1.332h16.449c1.011 0 1.293.285 1.293 1.3v19.838c0 .992-.307 1.29-1.314 1.29zm.624-1.958h15.222V21.295H9.245zm37.781-4.892H32.984a4.106 4.106 0 0 1-.435-.017.96.96 0 0 1-.921-.958.948.948 0 0 1 .972-.912c1.111-.017 2.222-.006 3.332-.006h11.364c.8 0 1.295.55 1.031 1.2a1.677 1.677 0 0 1-.711.645.539.539 0 0 1-.281.058c-.102.006-.21-.005-.309-.005zm-14.433-6.83a.956.956 0 0 1-.024-1.912 3.54 3.54 0 0 1 .491-.014h13.929c.937 0 1.431.344 1.419.984s-.481.95-1.393.951H32.844a2.339 2.339 0 0 1-.255-.009zm.45-6.855c-.932 0-1.388-.3-1.407-.92-.017-.641.457-.967 1.414-.967h7.045c2.4 0 4.807-.006 7.21 0 .73 0 1.176.449 1.084 1.05a.888.888 0 0 1-.819.818 4.461 4.461 0 0 1-.545.016H33.039zM3.892 6.376a2.949 2.949 0 1 1 2.979 2.948h-.033a3 3 0 0 1-2.946-2.948zm2.945-1.042a1.065 1.065 0 0 0-1.022 1 1.037 1.037 0 0 0 2.074.032 1.077 1.077 0 0 0-1.04-1.034zm6.809 3.989a2.958 2.958 0 0 1-2.913-2.993 2.907 2.907 0 0 1 2.982-2.9 2.961 2.961 0 0 1 2.911 2.941 3.012 3.012 0 0 1-2.949 2.952zm.007-3.989a1.05 1.05 0 0 0-1.016 1.006 1.023 1.023 0 0 0 1.016 1.045 1.008 1.008 0 0 0 1.033-1.021 1.028 1.028 0 0 0-1.019-1.029zm3.877 1.017a2.958 2.958 0 0 1 2.982-2.921 2.913 2.913 0 0 1 2.909 2.975 2.964 2.964 0 0 1-2.934 2.919 3.007 3.007 0 0 1-2.958-2.972zm1.939.015A1 1 0 0 0 20.5 7.385a1.031 1.031 0 0 0 1.015-1.048 1.051 1.051 0 0 0-1.02-1h-.014a1.017 1.017 0 0 0-1.013 1.03z" transform="translate(.5 .5)" style="fill:#28dea7;stroke:transparent;stroke-miterlimit:10"/>
    </g>
</svg>
