<svg xmlns="http://www.w3.org/2000/svg" width="15.547" height="15.547" viewBox="0 0 15.547 15.547">
  <g id="Instagram" transform="translate(0 0)">
    <path id="Path_966" data-name="Path 966" d="M89.434,230.181c2.076,0,2.322.008,3.141.045a4.291,4.291,0,0,1,1.443.268,2.57,2.57,0,0,1,1.476,1.475,4.326,4.326,0,0,1,.268,1.443c.037.82.045,1.066.045,3.141s-.008,2.322-.045,3.141a4.325,4.325,0,0,1-.268,1.443,2.574,2.574,0,0,1-1.476,1.476,4.29,4.29,0,0,1-1.443.268c-.82.037-1.065.045-3.141.045s-2.322-.008-3.141-.045a4.29,4.29,0,0,1-1.443-.268,2.574,2.574,0,0,1-1.476-1.476,4.326,4.326,0,0,1-.268-1.443c-.037-.82-.045-1.065-.045-3.141s.008-2.322.045-3.141a4.327,4.327,0,0,1,.268-1.443,2.571,2.571,0,0,1,1.476-1.475,4.291,4.291,0,0,1,1.443-.268c.82-.038,1.065-.045,3.141-.045m0-1.4c-2.111,0-2.376.009-3.205.047a5.709,5.709,0,0,0-1.887.361,3.974,3.974,0,0,0-2.273,2.273,5.678,5.678,0,0,0-.361,1.887c-.038.829-.047,1.094-.047,3.2s.009,2.376.047,3.205a5.682,5.682,0,0,0,.361,1.887,3.973,3.973,0,0,0,2.273,2.273,5.708,5.708,0,0,0,1.887.361c.829.038,1.094.047,3.205.047s2.376-.009,3.205-.047a5.708,5.708,0,0,0,1.887-.361,3.973,3.973,0,0,0,2.273-2.273,5.682,5.682,0,0,0,.361-1.887c.038-.829.047-1.094.047-3.205s-.009-2.376-.047-3.2a5.678,5.678,0,0,0-.361-1.887,3.974,3.974,0,0,0-2.273-2.273,5.71,5.71,0,0,0-1.887-.361c-.829-.038-1.094-.047-3.205-.047" transform="translate(-81.661 -228.78)" fill="#fafafb"/>
    <path id="Path_967" data-name="Path 967" d="M91.147,234.275a3.992,3.992,0,1,0,3.992,3.991,3.992,3.992,0,0,0-3.992-3.991m0,6.583a2.591,2.591,0,1,1,2.591-2.591,2.592,2.592,0,0,1-2.591,2.591" transform="translate(-83.374 -230.493)" fill="#fafafb"/>
    <path id="Path_968" data-name="Path 968" d="M99.494,233.623a.933.933,0,1,1-.933-.933.933.933,0,0,1,.933.933" transform="translate(-86.639 -229.999)" fill="#fafafb"/>
  </g>
</svg>
