<svg xmlns="http://www.w3.org/2000/svg" xmlns:xlink="http://www.w3.org/1999/xlink" width="153.442" height="61" viewBox="0 0 153.442 61">
  <defs>
    <linearGradient id="linear-gradient" x1="0.5" x2="0.5" y2="1" gradientUnits="objectBoundingBox">
      <stop offset="0" stop-color="#28dea7"/>
      <stop offset="1" stop-color="#28dea7"/>
    </linearGradient>
  </defs>
  <g id="logo" transform="translate(0 0)">
    <g id="Group_25399" data-name="Group 25399">
      <path id="Path_37926" data-name="Path 37926" d="M4079.184,1279.3a5.463,5.463,0,0,1-2.243,3.38,7.551,7.551,0,0,1-3.642,1.8,5.818,5.818,0,0,1-3.065-.178q-1.207-.567-1.447-2.684a8.485,8.485,0,0,1,1.054-5.142,4.489,4.489,0,0,1,3.778-2.616l.826-.1a17.768,17.768,0,0,1,2.722,1.175,4.355,4.355,0,0,1,2.042,3.248,4.124,4.124,0,0,1-.025,1.116m-6.974-20.777,12.251,7.39,12.25,7.389v29.558l-7.932,4.784a21.471,21.471,0,0,1-10.414-1.879q-6.516-2.976-7.257-9.523-.289-2.546,2.134-7.641a5.751,5.751,0,0,0-3.052-.453q-3.394.42-5.811,4.408a12.242,12.242,0,0,0-1.984,7.807q.824,7.274,10.8,9.637a39.563,39.563,0,0,0,9.825,1.119l-10.811,6.521-12.25-7.39-12.25-7.389V1273.3l12.25-7.389Z" transform="translate(-4047.71 -1256.64)" fill="#75ebba" fill-rule="evenodd"/>
      <path id="Path_37922" data-name="Path 37922" d="M499.862,198.659l24.282-15.117-17.689-32.486L490.7,147.333l-8.362,13.874v15.228l10.292,13.874Z" transform="translate(-472.431 -139.293)" fill="#fff"/>
      <path id="Path_37920" data-name="Path 37920" d="M4079.317,1279.388a5.491,5.491,0,0,1-2.253,3.395,7.578,7.578,0,0,1-3.657,1.81,5.842,5.842,0,0,1-3.078-.179q-1.212-.569-1.453-2.7a8.516,8.516,0,0,1,1.058-5.164,4.506,4.506,0,0,1,3.793-2.627l.829-.1a17.758,17.758,0,0,1,2.733,1.18,4.371,4.371,0,0,1,2.052,3.261,4.158,4.158,0,0,1-.025,1.121m-7-20.864,12.3,7.421,12.3,7.42v29.683l-7.965,4.8a21.559,21.559,0,0,1-10.458-1.888q-6.543-2.988-7.288-9.563-.291-2.557,2.143-7.673a5.773,5.773,0,0,0-3.064-.455q-3.41.422-5.836,4.426a12.292,12.292,0,0,0-1.993,7.84q.828,7.3,10.847,9.678a39.732,39.732,0,0,0,9.866,1.123l-10.855,6.548-12.3-7.421-7.135-4.3-5.167-3.117v-29.683l12.3-7.42Z" transform="translate(-4044.883 -1258.524)" fill-rule="evenodd" fill="url(#linear-gradient)"/>
    </g>
    <path id="Path_37921" data-name="Path 37921" d="M.726-.786V-1.1l.637-.255a1.446,1.446,0,0,0,.844-.6,2.143,2.143,0,0,0,.207-1.019V-19.6a2.3,2.3,0,0,0-.191-1.019,1.389,1.389,0,0,0-.86-.6l-.637-.255V-21.8H8.909v.318l-.637.255a1.446,1.446,0,0,0-.844.6A2.143,2.143,0,0,0,7.221-19.6V-2.983a2.046,2.046,0,0,0,.207,1,1.609,1.609,0,0,0,.844.621l.637.255v.318Zm10.858,0V-1.1l.637-.255a1.446,1.446,0,0,0,.844-.6,2.064,2.064,0,0,0,.207-.987V-19.6a2.143,2.143,0,0,0-.207-1.019,1.446,1.446,0,0,0-.844-.6l-.637-.255V-21.8h8.087v.318l-.541.223a1.55,1.55,0,0,0-.828.589,1.925,1.925,0,0,0-.223,1v7.737h7.61v-7.737a2.046,2.046,0,0,0-.207-1,1.478,1.478,0,0,0-.844-.589l-.573-.223V-21.8h8.119v.318l-.637.255a1.514,1.514,0,0,0-.828.6A2.014,2.014,0,0,0,30.5-19.6V-2.951a1.942,1.942,0,0,0,.223.987,1.514,1.514,0,0,0,.828.6l.637.255v.318H24.065V-1.1l.573-.191a1.609,1.609,0,0,0,.844-.621,2.046,2.046,0,0,0,.207-1v-8.374h-7.61V-2.92A1.621,1.621,0,0,0,19.13-1.3l.541.191v.318Zm32.7.573a10.222,10.222,0,0,1-3.741-.7A9.488,9.488,0,0,1,37.326-3a9.889,9.889,0,0,1-2.245-3.455,12.981,12.981,0,0,1-.828-4.84,12.886,12.886,0,0,1,.828-4.808,9.775,9.775,0,0,1,2.261-3.455,9.869,9.869,0,0,1,3.232-2.1,9.94,9.94,0,0,1,3.709-.716,10.432,10.432,0,0,1,3.741.685,9.288,9.288,0,0,1,3.216,2.07,9.861,9.861,0,0,1,2.245,3.471,13.107,13.107,0,0,1,.828,4.856A12.917,12.917,0,0,1,53.485-6.5a9.861,9.861,0,0,1-2.245,3.471,9.7,9.7,0,0,1-3.216,2.1A10.022,10.022,0,0,1,44.284-.213Zm0-.669a4.17,4.17,0,0,0,2.834-.939,5.784,5.784,0,0,0,1.576-3.216,30.994,30.994,0,0,0,.494-6.257,31.2,31.2,0,0,0-.494-6.288A5.784,5.784,0,0,0,47.117-20.8a4.17,4.17,0,0,0-2.834-.939,4.122,4.122,0,0,0-2.8.939,5.784,5.784,0,0,0-1.576,3.216,31.2,31.2,0,0,0-.494,6.288,30.994,30.994,0,0,0,.494,6.257,5.784,5.784,0,0,0,1.576,3.216A4.122,4.122,0,0,0,44.284-.882ZM63.77-.213A15.44,15.44,0,0,1,60.2-.643a11.2,11.2,0,0,1-3.025-1.13l.159-4.33h.318l.987,2.07A10.5,10.5,0,0,0,59.6-2.458,3.339,3.339,0,0,0,61-1.391a4.714,4.714,0,0,0,1.226.43,7.141,7.141,0,0,0,1.321.111A4.335,4.335,0,0,0,66.62-1.9a3.529,3.529,0,0,0,1.13-2.706,3.583,3.583,0,0,0-.764-2.436,7.827,7.827,0,0,0-2.452-1.7l-1.305-.573a13.66,13.66,0,0,1-4.283-2.786A5.725,5.725,0,0,1,57.4-16.292a5.467,5.467,0,0,1,.971-3.248,6.158,6.158,0,0,1,2.706-2.1,10.383,10.383,0,0,1,4.06-.732,11.263,11.263,0,0,1,3.2.446,9.22,9.22,0,0,1,2.627,1.21L70.775-16.9h-.318l-1.305-2.388a4.9,4.9,0,0,0-1.083-1.576,3.177,3.177,0,0,0-1.242-.653,4.845,4.845,0,0,0-.764-.175,6.813,6.813,0,0,0-.892-.048,4.1,4.1,0,0,0-2.738.939,3.14,3.14,0,0,0-1.114,2.531,3.772,3.772,0,0,0,.86,2.595,7.523,7.523,0,0,0,2.515,1.735l1.465.637a12.6,12.6,0,0,1,4.394,2.85,5.67,5.67,0,0,1,1.337,3.9A5.676,5.676,0,0,1,69.772-1.98,9.117,9.117,0,0,1,63.77-.213ZM78.544-.786V-1.1l1.305-.318a1.487,1.487,0,0,0,1.305-1.592V-21.164H78.448a2.065,2.065,0,0,0-1.688.621,10.414,10.414,0,0,0-1.083,1.7l-1.146,2.229h-.318l.159-5.19H92.745l.127,5.19h-.318L91.407-18.84a9.235,9.235,0,0,0-1.051-1.7,2.065,2.065,0,0,0-1.688-.621H85.963V-3.015a1.487,1.487,0,0,0,1.305,1.592l1.305.318v.318Z" transform="translate(60.571 41.016)" fill="#1b1b1b"/>
  </g>
</svg>
