<svg xmlns="http://www.w3.org/2000/svg" xmlns:xlink="http://www.w3.org/1999/xlink" width="1920" height="181" viewBox="0 0 1920 181">
  <defs>
    <clipPath id="clip-path">
      <rect id="Rectangle_7202" data-name="Rectangle 7202" width="1920" height="181" fill="#161429"/>
    </clipPath>
  </defs>
  <g id="Mask_Group_57" data-name="Mask Group 57" opacity="0.6" clip-path="url(#clip-path)">
    <g id="Group_26254" data-name="Group 26254" transform="translate(-114.781 -237.676)" opacity="0.22">
      <path id="Path_39990" data-name="Path 39990" d="M547,0c-44.1,17.049-68.269,62.087-76.115,105.717s-3.213,88.436-9.147,132.323-25.566,89.927-67.111,111.788c-14.124,7.434-29.994,11.622-45.981,14.3-20.2,3.385-41.438,4.389-60.879-1.7-15.213-4.767-28.535-13.628-40.741-23.289-49.52-39.2-83.4-92.15-121.857-140.832-15.181-19.217-31.494-38.156-52.484-51.917S25.236,124.469,0,129.078" transform="translate(0 0)" fill="none" stroke="#fff" stroke-miterlimit="10" stroke-width="1"/>
      <path id="Path_39991" data-name="Path 39991" d="M546.11,0C502,16.482,478.412,60.692,469.926,103.93s-4.689,87.82-10.9,131.539c-6.127,43.138-25.363,88.416-66.175,110.027-13.876,7.349-29.47,11.5-45.177,14.221-20.014,3.472-41.091,4.611-60.432-1.273-11.619-3.538-22.155-9.453-31.943-16.287-2.961-2.066-5.853-4.217-8.686-6.411a356.006,356.006,0,0,1-46.206-43.526C173.245,262.1,149.875,228.6,124.566,196.9c-15.183-19.019-31.471-37.766-52.347-51.423q-2.728-1.785-5.574-3.439C46.779,130.5,22.9,124.046,0,128.112" transform="translate(3.4 5.558)" fill="none" stroke="#fff" stroke-miterlimit="10" stroke-width="1" opacity="0.976"/>
      <path id="Path_39992" data-name="Path 39992" d="M545.216,0c-44.129,15.915-67.126,59.3-76.252,102.143s-6.163,87.2-12.65,130.755C450,275.286,431.155,319.8,391.075,341.164c-13.628,7.266-28.946,11.37-44.372,14.138-19.833,3.56-40.744,4.834-59.986-.846-11.557-3.415-22.064-9.172-31.837-15.843-2.956-2.017-5.846-4.118-8.679-6.263a350.044,350.044,0,0,1-46.265-42.707C172.7,260,149.277,226.869,123.96,195.5c-15.184-18.82-31.448-37.375-52.211-50.929q-2.713-1.771-5.542-3.414C46.46,129.689,22.77,123.222,0,127.146" transform="translate(6.801 11.116)" fill="none" stroke="#fff" stroke-miterlimit="10" stroke-width="1" opacity="0.951"/>
      <path id="Path_39993" data-name="Path 39993" d="M544.323,0C500.177,15.348,477.767,57.9,468,100.355s-7.634,86.585-14.4,129.972c-6.494,41.638-24.957,85.395-64.3,106.5-13.38,7.181-28.422,11.245-43.568,14.056-19.653,3.648-40.4,5.056-59.539-.419-11.5-3.292-21.973-8.89-31.732-15.4-2.953-1.968-5.841-4.019-8.672-6.115a344.061,344.061,0,0,1-46.324-41.888c-27.307-29.171-50.783-61.929-76.108-92.973-15.187-18.622-31.426-36.986-52.074-50.435q-2.7-1.758-5.51-3.39C46.141,128.88,22.636,122.4,0,126.179" transform="translate(10.201 16.675)" fill="none" stroke="#fff" stroke-miterlimit="10" stroke-width="1" opacity="0.927"/>
      <path id="Path_39994" data-name="Path 39994" d="M543.43,0c-44.162,14.781-65.984,56.5-76.39,98.568s-9.1,85.965-16.152,129.187C444.22,268.642,426.136,311.64,387.52,332.5c-13.132,7.1-27.9,11.121-42.763,13.973-19.473,3.737-40.049,5.279-59.092.008-11.434-3.169-21.881-8.609-31.626-14.954-2.949-1.919-5.835-3.921-8.666-5.968a338.147,338.147,0,0,1-46.382-41.07c-27.379-28.7-50.908-61.086-76.241-91.8-15.188-18.424-31.4-36.6-51.938-49.94q-2.684-1.744-5.478-3.365C45.822,128.071,22.5,121.573,0,125.213" transform="translate(13.6 22.233)" fill="none" stroke="#fff" stroke-miterlimit="10" stroke-width="1" opacity="0.902"/>
      <path id="Path_39995" data-name="Path 39995" d="M542.536,0c-44.179,14.214-65.414,55.108-76.458,96.78s-10.567,85.343-17.9,128.4c-6.837,40.136-24.55,82.374-62.432,102.983-12.884,7.014-27.374,11-41.959,13.891-19.294,3.826-39.7,5.5-58.646.435-11.371-3.047-21.79-8.327-31.52-14.51-2.946-1.87-5.83-3.822-8.66-5.819a332.316,332.316,0,0,1-46.441-40.251c-27.451-28.225-51.034-60.241-76.374-90.631-15.19-18.226-31.38-36.206-51.8-49.447q-2.668-1.731-5.446-3.34C45.5,127.263,22.369,120.75,0,124.247" transform="translate(17.001 27.791)" fill="none" stroke="#fff" stroke-miterlimit="10" stroke-width="1" opacity="0.878"/>
      <path id="Path_39996" data-name="Path 39996" d="M541.643,0c-44.2,13.646-64.842,53.712-76.528,94.992s-12.03,84.72-19.654,127.62c-7,39.384-24.346,80.863-61.5,101.222-12.636,6.93-26.851,10.878-41.153,13.809-19.116,3.917-39.356,5.724-58.2.862-11.309-2.924-21.7-8.046-31.414-14.066-2.942-1.821-5.823-3.723-8.653-5.671a326.489,326.489,0,0,1-46.5-39.433c-27.523-27.752-51.159-59.4-76.507-89.461-15.192-18.027-31.357-35.815-51.665-48.952q-2.655-1.717-5.415-3.316C45.184,126.454,22.236,119.925,0,123.28" transform="translate(20.401 33.349)" fill="none" stroke="#fff" stroke-miterlimit="10" stroke-width="1" opacity="0.854"/>
      <path id="Path_39997" data-name="Path 39997" d="M540.75,0c-44.212,13.08-64.271,52.316-76.6,93.205s-13.488,84.1-21.4,126.836c-7.156,38.633-24.143,79.352-60.561,99.461-12.388,6.846-26.327,10.758-40.349,13.726-18.938,4.009-39.008,5.946-57.753,1.29-11.248-2.8-21.608-7.765-31.31-13.623-2.938-1.771-5.817-3.624-8.646-5.523a320.78,320.78,0,0,1-46.558-38.614c-27.595-27.279-51.284-58.553-76.64-88.289C105.738,170.641,89.6,153.044,69.4,140.012q-2.64-1.7-5.383-3.291C44.866,125.644,22.1,119.1,0,122.314" transform="translate(23.8 38.907)" fill="none" stroke="#fff" stroke-miterlimit="10" stroke-width="1" opacity="0.829"/>
      <path id="Path_39998" data-name="Path 39998" d="M539.857,0c-44.228,12.513-63.7,50.92-76.665,91.418s-14.944,83.471-23.156,126.052c-7.306,37.88-23.939,77.841-59.625,97.7-12.141,6.761-25.8,10.639-39.545,13.644-18.76,4.1-38.661,6.169-57.307,1.717-11.186-2.678-21.516-7.484-31.2-13.178-2.934-1.722-5.811-3.525-8.639-5.375A315.088,315.088,0,0,1,197.1,274.182c-27.667-26.807-51.409-57.709-76.774-87.119-15.2-17.631-31.311-35.036-51.392-47.964q-2.625-1.69-5.352-3.266c-19.037-11-41.614-17.558-63.583-14.486" transform="translate(27.201 44.465)" fill="none" stroke="#fff" stroke-miterlimit="10" stroke-width="1" opacity="0.805"/>
      <path id="Path_39999" data-name="Path 39999" d="M538.964,0c-44.245,11.946-63.129,49.524-76.734,89.63s-16.4,82.844-24.907,125.268c-7.449,37.129-23.736,76.33-58.69,95.94-11.892,6.677-25.28,10.521-38.74,13.561-18.582,4.2-38.314,6.391-56.86,2.144-11.124-2.555-21.425-7.2-31.1-12.734-2.931-1.673-5.806-3.426-8.633-5.227a309.539,309.539,0,0,1-46.675-36.976c-27.739-26.333-51.534-56.865-76.906-85.947-15.2-17.433-31.289-34.646-51.256-47.47q-2.61-1.677-5.319-3.242c-18.918-10.92-41.31-17.5-63.146-14.566" transform="translate(30.6 50.024)" fill="none" stroke="#fff" stroke-miterlimit="10" stroke-width="1" opacity="0.78"/>
      <path id="Path_40000" data-name="Path 40000" d="M538.07,0c-44.261,11.379-62.558,48.128-76.8,87.843s-17.844,82.216-26.659,124.484c-7.586,36.377-23.533,74.819-57.754,94.179-11.644,6.593-24.757,10.405-37.935,13.478-18.4,4.292-37.967,6.614-56.414,2.572-11.062-2.433-21.333-6.921-30.992-12.291-2.927-1.624-5.8-3.327-8.626-5.079a304.032,304.032,0,0,1-46.734-36.157c-27.811-25.861-51.659-56.021-77.039-84.777C103.916,167.018,87.849,150,68,137.277q-2.6-1.663-5.288-3.217C43.909,123.218,21.7,116.627,0,119.415" transform="translate(34 55.582)" fill="none" stroke="#fff" stroke-miterlimit="10" stroke-width="1" opacity="0.756"/>
      <path id="Path_40001" data-name="Path 40001" d="M537.177,0C492.9,10.812,475.19,46.733,460.3,86.056s-19.287,81.588-28.409,123.7c-7.717,35.625-23.33,73.309-56.818,92.418-11.4,6.509-24.234,10.291-37.131,13.4-18.228,4.388-37.62,6.836-55.967,3a114.938,114.938,0,0,1-30.887-11.847c-2.923-1.574-5.794-3.228-8.619-4.931a298.58,298.58,0,0,1-46.792-35.339c-27.883-25.388-51.784-55.177-77.172-83.605-15.2-17.036-31.242-33.865-50.982-46.482q-2.581-1.649-5.256-3.191C43.59,122.409,21.568,115.8,0,118.448" transform="translate(37.401 61.14)" fill="none" stroke="#fff" stroke-miterlimit="10" stroke-width="1" opacity="0.732"/>
      <path id="Path_40002" data-name="Path 40002" d="M536.284,0c-44.294,10.244-61.416,45.336-76.94,84.267s-20.727,80.958-30.161,122.916c-7.841,34.875-23.126,71.8-55.882,90.658-11.148,6.425-23.71,10.178-36.326,13.314-18.052,4.486-37.272,7.059-55.521,3.426a115.213,115.213,0,0,1-30.781-11.4c-2.919-1.526-5.788-3.13-8.613-4.783a293.23,293.23,0,0,1-46.851-34.52C167.254,238.96,143.3,209.543,117.9,181.44c-15.2-16.837-31.22-33.475-50.846-45.987q-2.566-1.636-5.224-3.167C43.271,121.6,21.435,114.978,0,117.482" transform="translate(40.8 66.698)" fill="none" stroke="#fff" stroke-miterlimit="10" stroke-width="1" opacity="0.707"/>
      <path id="Path_40003" data-name="Path 40003" d="M535.391,0c-44.311,9.678-60.845,43.94-77.009,82.48s-22.162,80.328-31.912,122.132c-7.958,34.124-22.923,70.287-54.947,88.9-10.9,6.341-23.186,10.067-35.522,13.231-17.875,4.586-36.926,7.281-55.074,3.854a115.526,115.526,0,0,1-30.675-10.959c-2.915-1.476-5.783-3.031-8.607-4.635a287.985,287.985,0,0,1-46.909-33.7C166.71,236.856,142.7,207.81,117.3,180.035c-15.2-16.64-31.2-33.086-50.709-45.493q-2.551-1.622-5.193-3.142C42.952,120.792,21.3,114.154,0,116.516" transform="translate(44.2 72.256)" fill="none" stroke="#fff" stroke-miterlimit="10" stroke-width="1" opacity="0.683"/>
      <path id="Path_40004" data-name="Path 40004" d="M534.5,0c-44.328,9.111-60.274,42.544-77.078,80.693s-23.592,79.7-33.663,121.348c-8.069,33.373-22.719,68.777-54.011,87.136-10.652,6.257-22.662,9.957-34.717,13.149-17.7,4.686-36.578,7.5-54.628,4.28a115.894,115.894,0,0,1-30.569-10.515c-2.911-1.427-5.776-2.932-8.6-4.487a282.77,282.77,0,0,1-46.969-32.883c-28.1-23.969-52.159-52.644-77.571-80.093-15.206-16.441-31.174-32.7-50.573-45q-2.537-1.608-5.161-3.117C42.634,119.983,21.168,113.33,0,115.549" transform="translate(47.601 77.815)" fill="none" stroke="#fff" stroke-miterlimit="10" stroke-width="1" opacity="0.659"/>
      <path id="Path_40005" data-name="Path 40005" d="M533.6,0c-44.343,8.543-59.7,41.148-77.146,78.906S431.44,157.972,421.043,199.47c-8.173,32.623-22.516,67.266-53.075,85.375-10.4,6.173-22.139,9.849-33.913,13.066-17.522,4.789-36.231,7.726-54.181,4.708a116.347,116.347,0,0,1-30.464-10.07c-2.908-1.378-5.77-2.833-8.592-4.34a277.652,277.652,0,0,1-47.028-32.064c-28.17-23.5-52.284-51.8-77.7-78.922-15.208-16.243-31.151-32.305-50.437-44.5q-2.522-1.595-5.129-3.093C42.314,119.174,21.034,112.505,0,114.583" transform="translate(51.002 83.373)" fill="none" stroke="#fff" stroke-miterlimit="10" stroke-width="1" opacity="0.634"/>
      <path id="Path_40006" data-name="Path 40006" d="M532.71,0C488.35,7.976,473.579,39.752,455.5,77.118S429.058,155.553,418.331,196.9c-8.271,31.873-22.313,65.755-52.14,83.614-10.157,6.089-21.615,9.743-33.108,12.984-17.346,4.893-35.884,7.949-53.734,5.135a116.813,116.813,0,0,1-30.358-9.626c-2.9-1.329-5.765-2.734-8.586-4.191a272.631,272.631,0,0,1-47.086-31.246c-28.243-23.023-52.41-50.956-77.837-77.751-15.21-16.044-31.128-31.915-50.3-44.01q-2.507-1.582-5.1-3.068C42,118.365,20.9,111.681,0,113.617" transform="translate(54.401 88.93)" fill="none" stroke="#fff" stroke-miterlimit="10" stroke-width="1" opacity="0.61"/>
      <path id="Path_40007" data-name="Path 40007" d="M531.817,0c-44.376,7.409-58.56,38.357-77.283,75.331s-27.851,77.8-38.916,119c-8.361,31.124-22.109,64.244-51.2,81.853-9.909,6.005-21.09,9.637-32.3,12.9-17.171,5-35.536,8.171-53.288,5.562a117.3,117.3,0,0,1-30.252-9.183c-2.9-1.279-5.759-2.635-8.579-4.043a267.741,267.741,0,0,1-47.145-30.427c-28.314-22.551-52.535-50.112-77.97-76.58C99.664,158.566,83.77,142.886,64.711,130.9q-2.492-1.568-5.066-3.043c-17.969-10.3-38.878-17-59.646-15.2" transform="translate(57.802 94.49)" fill="none" stroke="#fff" stroke-miterlimit="10" stroke-width="1" opacity="0.585"/>
      <path id="Path_40008" data-name="Path 40008" d="M530.924,0c-44.393,6.843-57.99,36.96-77.353,73.543S424.313,150.716,412.9,191.756c-8.445,30.376-21.906,62.734-50.268,80.092-9.661,5.921-20.566,9.534-31.5,12.819-16.994,5.106-35.189,8.394-52.841,5.99a117.891,117.891,0,0,1-30.147-8.739c-2.9-1.23-5.753-2.537-8.573-3.9a262.887,262.887,0,0,1-47.2-29.608c-28.386-22.078-52.66-49.268-78.1-75.409-15.214-15.648-31.082-31.135-50.027-43.022q-2.478-1.555-5.034-3.019C41.358,116.747,20.634,110.032,0,111.684" transform="translate(61.201 100.048)" fill="none" stroke="#fff" stroke-miterlimit="10" stroke-width="1" opacity="0.561"/>
      <path id="Path_40009" data-name="Path 40009" d="M530.03,0c-44.409,6.276-57.418,35.564-77.421,71.755s-30.66,76.542-42.419,117.43c-8.521,29.629-21.7,61.223-49.333,78.331-9.413,5.837-20.041,9.433-30.695,12.736-16.818,5.217-34.842,8.617-52.394,6.417a118.531,118.531,0,0,1-30.041-8.294c-2.893-1.182-5.747-2.438-8.566-3.748A258.1,258.1,0,0,1,191.9,245.838c-28.458-21.6-52.786-48.423-78.237-74.238-15.215-15.45-31.059-30.745-49.891-42.528q-2.463-1.541-5-2.994C41.039,115.939,20.5,109.208,0,110.718" transform="translate(64.602 105.605)" fill="none" stroke="#fff" stroke-miterlimit="10" stroke-width="1" opacity="0.537"/>
      <path id="Path_40010" data-name="Path 40010" d="M529.137,0c-44.426,5.708-56.847,34.168-77.49,69.968s-32.054,75.912-44.169,116.645c-8.591,28.883-21.5,59.712-48.4,76.571-9.165,5.753-19.515,9.333-29.89,12.654-16.642,5.328-34.495,8.839-51.948,6.844a119.218,119.218,0,0,1-29.935-7.85c-2.889-1.132-5.741-2.339-8.56-3.6a253.49,253.49,0,0,1-47.32-27.97c-28.53-21.133-52.91-47.58-78.369-73.067C97.841,154.943,82.022,139.839,63.3,128.161q-2.449-1.528-4.971-2.969C40.721,115.13,20.367,108.383,0,109.751" transform="translate(68.002 111.165)" fill="none" stroke="#fff" stroke-miterlimit="10" stroke-width="1" opacity="0.512"/>
      <path id="Path_40011" data-name="Path 40011" d="M528.244,0C483.8,5.141,471.968,32.772,450.685,68.181s-33.44,75.283-45.92,115.861c-8.654,28.137-21.3,58.2-47.462,74.81-8.917,5.669-18.99,9.235-29.085,12.572-16.465,5.442-34.148,9.062-51.5,7.271a120.017,120.017,0,0,1-29.829-7.407c-2.885-1.083-5.735-2.24-8.553-3.451a248.979,248.979,0,0,1-47.379-27.152c-28.6-20.659-53.035-46.735-78.5-71.9-15.22-15.053-31.014-29.965-49.618-41.54Q60.4,125.735,57.9,124.3C40.4,114.321,20.233,107.559,0,108.785" transform="translate(71.402 116.722)" fill="none" stroke="#fff" stroke-miterlimit="10" stroke-width="1" opacity="0.488"/>
      <path id="Path_40012" data-name="Path 40012" d="M527.35,0c-44.459,4.574-55.705,31.376-77.628,66.393S414.9,141.048,402.051,181.47c-8.71,27.394-21.092,56.691-46.526,73.049-8.669,5.585-18.464,9.139-28.281,12.49-16.287,5.559-33.8,9.284-51.055,7.7a120.824,120.824,0,0,1-29.724-6.963c-2.881-1.034-5.73-2.141-8.546-3.3a244.567,244.567,0,0,1-47.438-26.333c-28.674-20.187-53.16-45.891-78.635-70.725-15.221-14.855-30.991-29.575-49.482-41.045q-2.418-1.5-4.907-2.92C40.082,113.512,20.1,106.735,0,107.819" transform="translate(74.801 122.28)" fill="none" stroke="#fff" stroke-miterlimit="10" stroke-width="1" opacity="0.463"/>
      <path id="Path_40013" data-name="Path 40013" d="M526.457,0c-44.475,4.007-55.134,29.98-77.7,64.605S412.572,138.634,399.337,178.9c-8.759,26.652-20.889,55.18-45.59,71.288-8.421,5.5-17.937,9.044-27.476,12.407-16.109,5.678-33.453,9.507-50.608,8.125a121.742,121.742,0,0,1-29.619-6.518q-4.316-1.476-8.539-3.156a240.215,240.215,0,0,1-47.5-25.514c-28.747-19.714-53.286-45.047-78.768-69.555C96.018,151.321,80.273,136.791,61.9,125.426q-2.4-1.487-4.875-2.895C39.763,112.7,19.966,105.91,0,106.852" transform="translate(78.203 127.839)" fill="none" stroke="#fff" stroke-miterlimit="10" stroke-width="1" opacity="0.439"/>
      <path id="Path_40014" data-name="Path 40014" d="M525.564,0C481.072,3.44,471,28.584,447.8,62.818s-37.55,73.4-51.174,113.509c-8.8,25.911-20.686,53.669-44.655,69.527-8.173,5.417-17.41,8.952-26.672,12.325-15.931,5.8-33.106,9.729-50.162,8.553a122.683,122.683,0,0,1-29.512-6.075q-4.312-1.4-8.533-3.008a235.983,235.983,0,0,1-47.555-24.7c-28.818-19.241-53.41-44.2-78.9-68.383-15.224-14.458-30.945-28.795-49.208-40.057q-2.39-1.473-4.843-2.87C39.445,111.895,19.833,105.086,0,105.886" transform="translate(81.602 133.397)" fill="none" stroke="#fff" stroke-miterlimit="10" stroke-width="1" opacity="0.415"/>
      <path id="Path_40015" data-name="Path 40015" d="M524.671,0c-44.508,2.873-53.992,27.188-77.834,61.031s-38.9,72.782-52.925,112.726c-8.837,25.172-20.482,52.158-43.718,67.766-7.925,5.333-16.882,8.862-25.867,12.242-15.751,5.926-32.759,9.951-49.715,8.98a123.7,123.7,0,0,1-29.407-5.631q-4.306-1.329-8.526-2.86a231.911,231.911,0,0,1-47.614-23.877c-28.89-18.768-53.535-43.359-79.034-67.213C94.8,148.906,79.108,134.76,60.958,123.6q-2.375-1.459-4.812-2.845C39.126,111.086,19.7,104.262,0,104.919" transform="translate(85.002 138.955)" fill="none" stroke="#fff" stroke-miterlimit="10" stroke-width="1" opacity="0.39"/>
      <path id="Path_40016" data-name="Path 40016" d="M523.777,0c-44.525,2.306-53.421,25.792-77.9,59.243S405.632,131.406,391.2,171.185c-8.866,24.434-20.279,50.647-42.783,66.005-7.677,5.249-16.353,8.773-25.062,12.16-15.57,6.054-32.413,10.174-49.269,9.407a124.8,124.8,0,0,1-29.3-5.187q-4.3-1.255-8.519-2.711A227.925,227.925,0,0,1,188.591,227.8c-28.962-18.3-53.66-42.515-79.167-66.041C94.2,147.7,78.525,133.744,60.488,122.691q-2.36-1.447-4.78-2.821C38.807,110.277,19.566,103.437,0,103.953" transform="translate(88.402 144.514)" fill="none" stroke="#fff" stroke-miterlimit="10" stroke-width="1" opacity="0.366"/>
      <path id="Path_40017" data-name="Path 40017" d="M522.884,0c-44.541,1.739-52.85,24.4-77.971,57.456S403.339,129,388.485,168.614c-8.887,23.7-20.075,49.137-41.847,64.244-7.429,5.164-15.824,8.687-24.258,12.077-15.388,6.186-32.065,10.4-48.822,9.835a126.022,126.022,0,0,1-29.2-4.743q-4.294-1.181-8.513-2.564a223.994,223.994,0,0,1-47.731-22.239c-29.034-17.823-53.786-41.671-79.3-64.871-15.229-13.863-30.876-27.625-48.8-38.574q-2.345-1.432-4.748-2.8c-16.783-9.516-35.839-16.371-55.271-16" transform="translate(91.802 150.072)" fill="none" stroke="#fff" stroke-miterlimit="10" stroke-width="1" opacity="0.341"/>
      <path id="Path_40018" data-name="Path 40018" d="M521.991,0c-44.558,1.172-52.279,23-78.04,55.668S401.059,126.6,385.772,166.042c-8.9,22.967-19.872,47.626-40.912,62.484-7.181,5.081-15.293,8.6-23.453,11.995-15.2,6.321-31.718,10.619-48.376,10.261a127.264,127.264,0,0,1-29.09-4.3q-4.289-1.108-8.506-2.416a220.247,220.247,0,0,1-47.79-21.42c-29.106-17.35-53.911-40.827-79.433-63.7-15.231-13.665-30.853-27.235-48.663-38.08q-2.331-1.42-4.716-2.772C38.169,108.659,19.3,101.788,0,102.02" transform="translate(95.202 155.63)" fill="none" stroke="#fff" stroke-miterlimit="10" stroke-width="1" opacity="0.317"/>
      <path id="Path_40019" data-name="Path 40019" d="M521.1,0c-44.575.605-51.708,21.6-78.109,53.881s-44.2,70.33-59.93,109.59c-8.911,22.238-19.668,46.115-39.976,60.723-6.934,5-14.762,8.52-22.649,11.912-15.018,6.46-31.371,10.842-47.93,10.689a128.589,128.589,0,0,1-28.984-3.855q-4.283-1.034-8.5-2.268a216.572,216.572,0,0,1-47.848-20.6c-29.178-16.877-54.036-39.983-79.566-62.529-15.234-13.466-30.83-26.844-48.526-37.586q-2.316-1.406-4.684-2.746C37.85,107.85,19.165,100.964,0,101.053" transform="translate(98.602 161.188)" fill="none" stroke="#fff" stroke-miterlimit="10" stroke-width="1" opacity="0.293"/>
      <path id="Path_40020" data-name="Path 40020" d="M520.2,0c-44.591.038-51.137,20.208-78.178,52.094S396.538,121.822,380.346,160.9c-8.913,21.51-19.465,44.6-39.041,58.962-6.686,4.913-14.229,8.439-21.844,11.83-14.829,6.6-31.023,11.064-47.483,11.116A130.041,130.041,0,0,1,243.1,239.4q-4.277-.96-8.493-2.12A213,213,0,0,1,186.7,217.494c-29.25-16.4-54.161-39.139-79.7-61.358-15.235-13.268-30.807-26.455-48.39-37.092q-2.3-1.392-4.653-2.721C37.531,107.042,19.032,100.139,0,100.088" transform="translate(102.002 166.747)" fill="none" stroke="#fff" stroke-miterlimit="10" stroke-width="1" opacity="0.268"/>
      <path id="Path_40021" data-name="Path 40021" d="M519.31.011C474.7-.518,468.745,18.823,441.064,50.317S394.3,119.451,377.632,158.339c-8.908,20.786-19.262,43.094-38.1,57.2-6.438,4.828-13.7,8.36-21.039,11.747-14.638,6.75-30.677,11.287-47.036,11.543a131.527,131.527,0,0,1-28.773-2.966q-4.272-.887-8.486-1.972a209.588,209.588,0,0,1-47.965-18.964C156.906,199,131.941,176.633,106.4,154.741c-15.237-13.069-30.785-26.065-48.253-36.6q-2.287-1.379-4.621-2.7C37.212,106.244,18.9,99.326,0,99.132" transform="translate(105.402 172.293)" fill="none" stroke="#fff" stroke-miterlimit="10" stroke-width="1" opacity="0.244"/>
      <path id="Path_40022" data-name="Path 40022" d="M518.418.046c-44.624-1.1-49.995,17.416-78.315,48.518S392.077,117.111,374.92,155.8c-8.9,20.065-19.059,41.583-37.169,55.44-6.19,4.744-13.161,8.284-20.235,11.665-14.443,6.9-30.329,11.509-46.59,11.971a133.109,133.109,0,0,1-28.667-2.523q-4.266-.813-8.48-1.824a206.25,206.25,0,0,1-48.024-18.146c-29.394-15.459-54.411-37.45-79.965-59.015C90.551,140.5,75.029,127.7,57.673,117.267Q55.4,115.9,53.084,114.6C36.894,105.47,18.765,98.537,0,98.2" transform="translate(108.803 177.817)" fill="none" stroke="#fff" stroke-miterlimit="10" stroke-width="1" opacity="0.22"/>
      <path id="Path_40023" data-name="Path 40023" d="M517.524.108c-44.64-1.663-49.424,16.02-78.384,46.731s-49.269,67.968-66.934,106.455c-8.881,19.348-18.855,40.073-36.233,53.679-5.942,4.66-12.623,8.209-19.43,11.583-14.245,7.06-29.982,11.732-46.143,12.4a134.8,134.8,0,0,1-28.561-2.079q-4.261-.738-8.473-1.676a203.064,203.064,0,0,1-48.083-17.327c-29.465-14.986-54.536-36.607-80.1-57.845-15.24-12.673-30.739-25.284-47.98-35.609q-2.257-1.351-4.558-2.647C36.574,104.723,18.631,97.774,0,97.3" transform="translate(112.203 183.313)" fill="none" stroke="#fff" stroke-miterlimit="10" stroke-width="1" opacity="0.195"/>
      <path id="Path_40024" data-name="Path 40024" d="M516.631.2c-44.657-2.23-48.853,14.624-78.453,44.943s-50.493,67.4-68.685,105.671c-8.858,18.634-18.652,38.561-35.3,51.918a108.446,108.446,0,0,1-18.626,11.5,113.973,113.973,0,0,1-45.7,12.825,136.609,136.609,0,0,1-28.456-1.634q-4.255-.665-8.466-1.528a199.955,199.955,0,0,1-48.141-16.508c-29.538-14.512-54.662-35.762-80.231-56.673C89.336,138.235,73.862,125.815,56.734,115.6q-2.242-1.338-4.525-2.623C36.256,104,18.5,97.039,0,96.419" transform="translate(115.603 188.782)" fill="none" stroke="#fff" stroke-miterlimit="10" stroke-width="1" opacity="0.171"/>
      <path id="Path_40025" data-name="Path 40025" d="M515.737.314c-44.673-2.8-48.281,13.228-78.522,43.156s-51.7,66.843-70.436,104.887c-8.829,17.925-18.448,37.051-34.362,50.157A106.335,106.335,0,0,1,314.6,209.932a112.553,112.553,0,0,1-45.25,13.253A138.5,138.5,0,0,1,241,221.993q-4.249-.591-8.46-1.38a196.978,196.978,0,0,1-48.2-15.689c-29.61-14.04-54.786-34.918-80.364-55.5-15.244-12.276-30.693-24.5-47.707-34.621q-2.228-1.324-4.494-2.6C35.936,103.311,18.364,96.331,0,95.569" transform="translate(119.003 194.224)" fill="none" stroke="#fff" stroke-miterlimit="10" stroke-width="1" opacity="0.146"/>
      <path id="Path_40026" data-name="Path 40026" d="M514.844.461c-44.69-3.364-47.711,11.832-78.59,41.369s-52.88,66.3-72.187,104.1c-8.795,17.221-18.245,35.54-33.426,48.4a104.126,104.126,0,0,1-17.017,11.335,111,111,0,0,1-44.8,13.68,140.432,140.432,0,0,1-28.244-.747q-4.244-.517-8.453-1.232a194.169,194.169,0,0,1-48.258-14.871c-29.681-13.567-54.911-34.074-80.5-54.332C88.121,136.084,72.7,124.047,55.8,114.035q-2.213-1.311-4.462-2.573C35.618,102.649,18.231,95.654,0,94.75" transform="translate(122.403 199.635)" fill="none" stroke="#fff" stroke-miterlimit="10" stroke-width="1" opacity="0.122"/>
      <path id="Path_40027" data-name="Path 40027" d="M513.951.638c-44.706-3.931-47.14,10.436-78.659,39.581s-54.039,65.77-73.938,103.319c-8.756,16.522-18.042,34.03-32.491,46.636a101.719,101.719,0,0,1-16.212,11.253,109.333,109.333,0,0,1-44.356,14.107,142.432,142.432,0,0,1-28.139-.3q-4.239-.443-8.447-1.084a191.415,191.415,0,0,1-48.317-14.052c-29.753-13.094-55.036-33.229-80.63-53.161C87.514,135.053,72.114,123.21,55.327,113.3q-2.2-1.3-4.431-2.549C35.3,102.018,18.1,95.007,0,93.961" transform="translate(125.802 205.015)" fill="none" stroke="#fff" stroke-miterlimit="10" stroke-width="1" opacity="0.098"/>
      <path id="Path_40028" data-name="Path 40028" d="M513.057.847c-44.723-4.5-46.569,9.04-78.728,37.793S379.156,103.9,358.64,141.175C349.928,157,340.8,173.694,327.085,186.051a99.166,99.166,0,0,1-15.408,11.17,107.56,107.56,0,0,1-43.91,14.534,144.631,144.631,0,0,1-28.033.141q-4.232-.37-8.44-.936a188.791,188.791,0,0,1-48.375-13.233c-29.825-12.622-55.162-32.386-80.763-51.99C86.906,134.055,71.531,122.4,54.858,112.6q-2.184-1.284-4.4-2.524C34.98,101.418,17.964,94.391,0,93.2" transform="translate(129.204 210.365)" fill="none" stroke="#fff" stroke-miterlimit="10" stroke-width="1" opacity="0.073"/>
      <path id="Path_40029" data-name="Path 40029" d="M512.164,1.089c-44.74-5.065-46,7.644-78.8,36.006s-56.278,64.765-77.44,101.751c-8.663,15.14-17.635,31.008-30.619,43.114a96.476,96.476,0,0,1-14.6,11.088,105.65,105.65,0,0,1-43.464,14.961,146.85,146.85,0,0,1-27.928.585q-4.226-.3-8.433-.788a186.256,186.256,0,0,1-48.434-12.415c-29.9-12.149-55.287-31.541-80.9-50.819-15.251-11.483-30.6-22.944-47.162-32.644q-2.169-1.271-4.367-2.5C34.661,100.851,17.83,93.809,0,92.479" transform="translate(132.603 215.681)" fill="none" stroke="#fff" stroke-miterlimit="10" stroke-width="1" opacity="0.049"/>
      <path id="Path_40030" data-name="Path 40030" d="M511.271,1.364c-44.756-5.632-45.426,6.248-78.865,34.218s-57.355,64.3-79.192,100.968c-8.61,14.459-17.432,29.5-29.684,41.353a93.5,93.5,0,0,1-13.8,11.005c-12.7,8.331-27.552,13.289-43.017,15.389a149.152,149.152,0,0,1-27.822,1.029q-4.221-.222-8.427-.64a183.884,183.884,0,0,1-48.493-11.6c-29.969-11.676-55.412-30.7-81.029-49.648-15.253-11.286-30.579-22.555-47.025-32.15q-2.155-1.257-4.335-2.474C34.343,100.318,17.7,93.26,0,91.788" transform="translate(136.003 220.964)" fill="none" stroke="#fff" stroke-miterlimit="10" stroke-width="1" opacity="0.024"/>
      <path id="Path_40031" data-name="Path 40031" d="M510.378,1.675c-44.772-6.2-44.856,4.852-78.934,32.431S373.045,97.958,350.5,134.29c-11.494,18.522-23.2,37.794-41.742,50.515-19.851,13.625-45.59,18.16-70.286,17.289A181.884,181.884,0,0,1,181.5,190.825c-49.487-18.455-86.64-57.119-132.354-82.582C34.023,99.82,17.563,92.746,0,91.132" transform="translate(139.403 226.212)" fill="none" stroke="#fff" stroke-miterlimit="10" stroke-width="1" opacity="0"/>
    </g>
  </g>
</svg>
