<svg xmlns="http://www.w3.org/2000/svg" width="37.978" height="29.532" viewBox="0 0 37.978 29.532">
    <path data-name="Path 38916" d="M37.431 31.8v.076h.069a.075.075 0 0 0 .038-.01.034.034 0 0 0 .011-.013.035.035 0 0 0 0-.016.034.034 0 0 0 0-.016.032.032 0 0 0-.011-.012.068.068 0 0 0-.038-.01h-.071zm.072-.054a.131.131 0 0 1 .085.025.082.082 0 0 1 .03.067.077.077 0 0 1-.006.032.078.078 0 0 1-.018.027.117.117 0 0 1-.068.028l.095.108h-.073l-.087-.107h-.028v.107h-.061v-.287h.128zm-.019.386a.229.229 0 0 0 .093-.019.243.243 0 0 0 .076-.051.239.239 0 0 0 .051-.076.246.246 0 0 0 0-.188.249.249 0 0 0-.051-.076.244.244 0 0 0-.076-.051.24.24 0 0 0-.093-.018.25.25 0 0 0-.095.018.243.243 0 0 0-.078.051.245.245 0 0 0-.051.266.225.225 0 0 0 .051.076.244.244 0 0 0 .078.051.238.238 0 0 0 .095.019zm0-.549a.318.318 0 0 1 .223.091.306.306 0 0 1 .067.339.319.319 0 0 1-.067.1.339.339 0 0 1-.1.066.309.309 0 0 1-.123.025.313.313 0 0 1-.125-.025.323.323 0 0 1-.1-.066.319.319 0 0 1-.066-.1.306.306 0 0 1 .067-.339.3.3 0 0 1 .1-.066.315.315 0 0 1 .124-.025zM8.413 30.47a.944.944 0 1 1 .945 1 .935.935 0 0 1-.945-1zm2.523 0v-1.558h-.678v.38a1.181 1.181 0 0 0-.984-.456 1.638 1.638 0 0 0 0 3.272 1.182 1.182 0 0 0 .984-.457v.378h.677V30.47zm22.9 0a.944.944 0 1 1 .945 1 .935.935 0 0 1-.95-1zm2.524 0v-2.809h-.678v1.63a1.181 1.181 0 0 0-.984-.456 1.638 1.638 0 0 0 0 3.272 1.182 1.182 0 0 0 .984-.457v.378h.678zm-17.015-1.029a.774.774 0 0 1 .789.756h-1.617a.8.8 0 0 1 .828-.756zm.014-.607a1.637 1.637 0 0 0 .045 3.272 1.893 1.893 0 0 0 1.277-.437l-.332-.5a1.486 1.486 0 0 1-.907.326.865.865 0 0 1-.932-.763h2.314c.007-.084.013-.169.013-.26a1.5 1.5 0 0 0-1.48-1.636zm8.181 1.636a.944.944 0 1 1 .945 1 .935.935 0 0 1-.945-1zm2.523 0v-1.558h-.677v.38a1.182 1.182 0 0 0-.984-.456 1.638 1.638 0 0 0 0 3.272 1.182 1.182 0 0 0 .984-.457v.378h.677V30.47zm-6.349 0a1.574 1.574 0 0 0 1.662 1.636 1.629 1.629 0 0 0 1.12-.371l-.325-.548a1.37 1.37 0 0 1-.816.281 1 1 0 0 1 0-1.995 1.373 1.373 0 0 1 .816.281l.329-.554a1.631 1.631 0 0 0-1.12-.371 1.574 1.574 0 0 0-1.667 1.64zm8.735-1.636a.92.92 0 0 0-.821.456v-.378h-.672v3.115h.678v-1.746c0-.515.222-.8.665-.8a1.1 1.1 0 0 1 .424.078l.209-.639a1.443 1.443 0 0 0-.483-.085zm-18.163.326a2.331 2.331 0 0 0-1.271-.326c-.789 0-1.3.378-1.3 1 0 .508.378.821 1.075.919l.32.046c.372.052.547.15.547.326 0 .241-.247.378-.71.378a1.66 1.66 0 0 1-1.036-.326l-.318.528a2.248 2.248 0 0 0 1.349.4c.9 0 1.421-.424 1.421-1.017 0-.548-.41-.834-1.089-.932l-.319-.046c-.293-.038-.528-.1-.528-.306 0-.228.222-.365.593-.365a2.01 2.01 0 0 1 .972.267l.293-.548zm8.743-.325a.918.918 0 0 0-.821.456v-.379h-.672v3.115h.678v-1.746c0-.515.222-.8.665-.8a1.1 1.1 0 0 1 .424.078l.209-.639a1.442 1.442 0 0 0-.483-.085zm-5.782.078h-1.109v-.945h-.685v.945h-.632v.619h.632v1.421c0 .723.281 1.153 1.082 1.153a1.592 1.592 0 0 0 .848-.241l-.2-.58a1.254 1.254 0 0 1-.6.176c-.339 0-.449-.209-.449-.521v-1.408h1.108zM7.116 32.028v-1.955a1.16 1.16 0 0 0-1.226-1.238 1.206 1.206 0 0 0-1.1.554 1.144 1.144 0 0 0-1.03-.554 1.031 1.031 0 0 0-.913.463v-.385h-.673v3.115h.683V30.3a.729.729 0 0 1 .763-.828c.45 0 .678.293.678.821v1.734h.685V30.3a.735.735 0 0 1 .762-.828c.463 0 .683.293.683.821v1.734z" transform="translate(-.207 -2.666)" style="fill:#161429"/>
    <path data-name="Path 38917" d="M41.473 20.987v-.456h-.119l-.137.313-.137-.313h-.119v.456h.084v-.343l.128.3h.087l.128-.3v.344h.083zm-.753 0v-.377h.152v-.077h-.388v.077h.152v.377h.084z" transform="translate(-3.863 -1.986)" style="fill:#f79410"/>
    <path data-name="Path 38918" d="M25.585 21.248H15.316V2.8h10.269z" transform="translate(-1.461 -.294)" style="fill:#ff5f00"/>
    <path data-name="Path 38919" d="M14.505 11.761a11.71 11.71 0 0 1 4.482-9.223 11.731 11.731 0 1 0 0 18.446 11.71 11.71 0 0 1-4.482-9.223z" transform="translate(0 -.029)" style="fill:#eb001b"/>
    <path data-name="Path 38920" d="M39.981 11.761a11.737 11.737 0 0 1-18.988 9.223 11.729 11.729 0 0 0 0-18.446 11.737 11.737 0 0 1 18.987 9.223" transform="translate(-2.003 -.029)" style="fill:#f79e1b"/>
</svg>
