<svg xmlns="http://www.w3.org/2000/svg" width="56" height="49.431" viewBox="0 0 56 49.431">
    <g data-name="Group 25398">
        <path data-name="Path 38139" d="M872.819 206.882a6.172 6.172 0 0 0-6.169-6.205q-21.816-.024-43.632 0a6.184 6.184 0 0 0-6.092 5.1 1.269 1.269 0 0 1-.1.244v38.719c.115.4.209.8.347 1.194a6.176 6.176 0 0 0 5.838 4.157q21.816.01 43.632 0a6.168 6.168 0 0 0 6.177-6.191q.009-18.509-.001-37.018zm-1.85 9.247v27.447a4.249 4.249 0 0 1-2.449 4.168 5.178 5.178 0 0 1-2.154.477q-21.542.04-43.084.017a4.369 4.369 0 0 1-4.6-4.5q-.018-13.915 0-27.83c0-.107.009-.214.016-.36h52.273zm0-2.532h-52.247a3.8 3.8 0 0 1-.041-.388c0-2.06-.013-4.119 0-6.179a4.315 4.315 0 0 1 3.3-4.337 5.568 5.568 0 0 1 1.4-.159q21.435-.012 42.869-.005a4.387 4.387 0 0 1 4.543 3.264 3.368 3.368 0 0 1 .142.859c.017 2.114.017 4.228.022 6.342.012.181.012.361.012.606z" style="fill:#28dea7" transform="translate(-816.824 -200.666)"/>
        <path data-name="Path 38140" d="M1082.612 390.873c-.951 0-1.293.349-1.294 1.292V409.474c0 .887.336 1.248 1.213 1.255q2.46.019 4.92 0c.889-.006 1.24-.353 1.24-1.232q.007-8.681 0-17.362c0-.913-.352-1.255-1.273-1.259q-2.403-.013-4.806-.003zm4.108 17.868h-3.456V392.86h3.456z" transform="translate(-1046.492 -366.533)" style="fill:#28dea7"/>
        <path data-name="Path 38141" d="M1008.7 452.31c0-1.005-.322-1.335-1.3-1.337q-2.429-.005-4.857 0c-.919 0-1.262.339-1.263 1.259q-.008 4.547 0 9.093c0 .9.371 1.27 1.27 1.276q2.429.015 4.857 0c.93 0 1.289-.374 1.292-1.311.006-1.506 0-3.012 0-4.518.001-1.487.007-2.972.001-4.462zm-1.987 8.306h-3.445v-7.693h3.445z" transform="translate(-976.992 -418.408)" style="fill:#28dea7"/>
        <path data-name="Path 38142" d="M929.426 339.872c.188.014.377.009.565.009h24.648c.749 0 1.158-.347 1.171-.935.013-.6-.43-.977-1.185-1h-24.761a3.584 3.584 0 0 0-.508.014.972.972 0 0 0-.917 1.026.949.949 0 0 0 .987.886z" transform="translate(-914.122 -319.801)" style="fill:#28dea7"/>
        <path data-name="Path 38143" d="M922.659 496.945q2.6.037 5.2 0c.749-.011 1.083-.4 1.086-1.148q.009-1.922 0-3.844c0-.815-.354-1.171-1.166-1.179-.829-.008-1.658 0-2.487 0-.848 0-1.7-.006-2.544 0-.794.007-1.163.347-1.172 1.118q-.023 1.978 0 3.957a.977.977 0 0 0 1.083 1.096zm.885-4.211h3.468v2.218h-3.468z" transform="translate(-907.774 -452.759)" style="fill:#28dea7"/>
        <path data-name="Path 38144" d="M937.5 390.941a1.911 1.911 0 0 0-.445-.051h-7.342a1.851 1.851 0 0 0-.662.106.873.873 0 0 0-.589.983.863.863 0 0 0 .747.8 3.54 3.54 0 0 0 .618.044h5.817c.583 0 1.167.007 1.749-.026a.873.873 0 0 0 .886-.853.912.912 0 0 0-.779-1.003z" transform="translate(-913.784 -365.749)" style="fill:#28dea7"/>
        <path data-name="Path 38145" d="M934.414 443.858c-1.583-.008-3.167 0-4.751 0a1.967 1.967 0 0 0-.444.066.866.866 0 0 0-.728.937.815.815 0 0 0 .779.885c.92.044 1.844.013 2.766.013v.052c.773 0 1.548.032 2.318-.015a1.5 1.5 0 0 0 .959-.342 1.232 1.232 0 0 0 .182-.968c-.119-.516-.606-.625-1.081-.628z" transform="translate(-913.784 -411.716)" style="fill:#28dea7"/>
        <path data-name="Path 38146" d="M1017.27 392.867c.507 0 1.015.022 1.521-.006a.95.95 0 0 0 .983-.888.915.915 0 0 0-.866-1 33.779 33.779 0 0 0-3.261.006.9.9 0 0 0-.847.955.942.942 0 0 0 .95.919c.505.038 1.013.014 1.52.014z" transform="translate(-988.685 -365.798)" style="fill:#28dea7"/>
        <path data-name="Path 38147" d="M849.131 234.683a3.039 3.039 0 1 0-.01 6.078 3.039 3.039 0 0 0 .01-6.078zm-.011 4.143a1.086 1.086 0 0 1-1.081-1.135 1.061 1.061 0 0 1 1.093-1.052 1.118 1.118 0 0 1 1.081 1.092 1.158 1.158 0 0 1-1.093 1.095z" transform="translate(-842.07 -230.027)" style="fill:#28dea7"/>
        <path data-name="Path 38148" d="M917.128 235a3.023 3.023 0 1 0 3.042 3.046 3.024 3.024 0 0 0-3.042-3.046zm.033 4.124a1.085 1.085 0 0 1-1.088-1.128 1.058 1.058 0 0 1 1.1-1.045 1.08 1.08 0 0 1 1.07 1.084 1.123 1.123 0 0 1-1.082 1.087z" transform="translate(-901.306 -230.298)" style="fill:#28dea7"/>
        <path data-name="Path 38149" d="M985.094 235.29a3.02 3.02 0 1 0 3.034 2.995 3 3 0 0 0-3.034-2.995zm-.013 4.1a1.085 1.085 0 0 1-1.07-1.087 1.12 1.12 0 0 1 1.142-1.081 1.084 1.084 0 0 1 1.028 1.125 1.062 1.062 0 0 1-1.1 1.039z" transform="translate(-960.304 -230.55)" style="fill:#28dea7"/>
    </g>
</svg>
