<svg xmlns="http://www.w3.org/2000/svg" width="57" height="50.434" viewBox="0 0 57 50.434">
    <g data-name="Group 25397">
        <path data-name="Union 11" d="M-8508.561 6515.588a6.528 6.528 0 0 1-6.64-6.681c.063-12.08.027-24.16.02-36.24a6.307 6.307 0 0 1 1.222-3.883 6.408 6.408 0 0 1 5.48-2.629q11.918.02 23.832 0c6.249 0 12.5.01 18.748 0a6.191 6.191 0 0 1 5.521 2.735 15.445 15.445 0 0 1 1.177 2.777v38.376a13.607 13.607 0 0 1-.54 1.7 6.331 6.331 0 0 1-6.2 3.836q-13.884.006-27.769 0c-4.937 0-9.874-.019-14.813.005zm-4.717-36V6508.828a4.5 4.5 0 0 0 4.848 4.831q21.234 0 42.465-.008a5.953 5.953 0 0 0 1.564-.181 4.436 4.436 0 0 0 3.3-4.686q.006-14.647 0-29.293v-.605h-52.178zm4.558-11.529a4.38 4.38 0 0 0-4.448 3.663c-.163 1.692-.033 3.414-.033 5.166h52.066c0-1.548.039-3.057-.02-4.562a4.445 4.445 0 0 0-.425-1.724 4.427 4.427 0 0 0-4.347-2.542h-42.794zm19.113 40.819a1.113 1.113 0 0 1-1.159-1.083c-.092-.7-.158-1.406-.191-2.109-.021-.45-.138-.792-.6-.931a.111.111 0 0 1-.046-.026 1.88 1.88 0 0 0-2.552-.051 7.876 7.876 0 0 1-1.153.534 1.037 1.037 0 0 1-1.461-.446c-.909-1.511-1.784-3.043-2.706-4.627h-.072v-1.681h.041a3.6 3.6 0 0 0 2.443-.749c.355-.287.619-.51.51-1.021-.068-.32.033-.673-.008-1a.964.964 0 0 0-.281-.6c-.6-.469-1.238-.88-1.848-1.335a1.213 1.213 0 0 1-.374-1.763q1.156-2.024 2.343-4.031a1.154 1.154 0 0 1 1.588-.515 9.314 9.314 0 0 1 1.295.6 1.582 1.582 0 0 0 2.166-.066.7.7 0 0 1 .282-.144c.429-.128.527-.437.546-.85.031-.669.107-1.338.184-2 .105-.922.48-1.246 1.427-1.261.4-.007.8 0 1.231 0v-.075h1.752v.074c.518 0 .975-.007 1.432 0a1.255 1.255 0 0 1 1.395 1.313c.067.739.124 1.479.221 2.215a.973.973 0 0 0 .3.481c.107.108.3.126.412.231a1.661 1.661 0 0 0 2.266.067 8.889 8.889 0 0 1 1.3-.6 1.069 1.069 0 0 1 1.506.459c.917 1.527 1.8 3.075 2.7 4.614v.53a7.134 7.134 0 0 1-2.21 1.829c-.411.3-.69.581-.556 1.115a.24.24 0 0 1 0 .105 1.817 1.817 0 0 0 1.089 2.128 7.158 7.158 0 0 1 .931.7 1.214 1.214 0 0 1 .312 1.737 404.617 404.617 0 0 1-2.315 3.984 1.165 1.165 0 0 1-1.623.542q-1.069-.458-2.112-.977a.58.58 0 0 0-.721.063 1.241 1.241 0 0 1-.445.282c-.843.234-1.058.838-1.05 1.627 0 .493-.077.986-.115 1.479-.064.771-.437 1.205-1.189 1.219q-1.263.023-2.527.022-1.18.006-2.357-.01zm-2.663-6.6c.851.464 1.673.978 2.523 1.436a.591.591 0 0 1 .375.557c.052.846.128 1.691.223 2.533.014.129.17.345.264.348 1.214.022 2.43.015 3.666.015.1-1.012.2-1.958.27-2.908a.652.652 0 0 1 .429-.58c.831-.457 1.633-.968 2.464-1.427a.779.779 0 0 1 .6-.03c.9.386 1.787.809 2.7 1.229.668-1.152 1.308-2.261 1.966-3.4-.784-.6-1.521-1.175-2.271-1.73a.6.6 0 0 1-.268-.609 26.15 26.15 0 0 0 0-2.794.61.61 0 0 1 .292-.645c.808-.558 1.6-1.139 2.411-1.718-.683-1.146-1.34-2.251-2.013-3.378-.922.418-1.806.811-2.678 1.228a.6.6 0 0 1-.667-.052c-.807-.5-1.63-.983-2.466-1.433a.588.588 0 0 1-.379-.546c-.073-.949-.18-1.9-.279-2.913-1.251 0-2.435-.01-3.615.017-.111 0-.3.222-.314.356-.1.841-.178 1.687-.223 2.534a.588.588 0 0 1-.383.546c-.848.466-1.665.984-2.513 1.453a.77.77 0 0 1-.593.037c-.906-.385-1.795-.807-2.713-1.228-.664 1.145-1.307 2.253-1.959 3.38.82.584 1.59 1.149 2.377 1.686a.7.7 0 0 1 .326.741 24.628 24.628 0 0 0 0 2.631.692.692 0 0 1-.309.749c-.839.55-1.654 1.136-2.5 1.719.664 1.141 1.308 2.245 1.957 3.363.938-.432 1.813-.85 2.706-1.228a.548.548 0 0 1 .207-.037.866.866 0 0 1 .387.097zm4.869.935a6.939 6.939 0 0 1-6.586-6.962 6.965 6.965 0 0 1 7.352-6.841 6.942 6.942 0 0 1 6.471 7.006 6.924 6.924 0 0 1-7.049 6.8zm-4.856-7.069a5.226 5.226 0 0 0 5.067 5.373 5.24 5.24 0 0 0 5.3-5.151 5.182 5.182 0 0 0-4.957-5.247h-.116a5.214 5.214 0 0 0-5.294 5.025zm-7.294 3.994zm12.466-.237a3.6 3.6 0 0 1-3.56-3.6 3.6 3.6 0 0 1 3.577-3.577 3.56 3.56 0 0 1 3.55 3.591 3.593 3.593 0 0 1-3.552 3.583zm-1.866-3.586a1.861 1.861 0 0 0 1.85 1.853 1.836 1.836 0 0 0 1.879-1.863 1.844 1.844 0 0 0-1.832-1.864h-.013a1.9 1.9 0 0 0-1.884 1.873zm-8.719-23.808a2.955 2.955 0 0 1 2.982-2.921 2.913 2.913 0 0 1 2.909 2.976 2.964 2.964 0 0 1-2.935 2.917 3 3 0 0 1-2.956-2.972zm1.938.016a1 1 0 0 0 1.033 1.018 1.028 1.028 0 0 0 1.015-1.049 1.049 1.049 0 0 0-1.02-1h-.012a1.017 1.017 0 0 0-1.015 1.03zm-5.823 2.957a2.958 2.958 0 0 1-2.912-2.993 2.906 2.906 0 0 1 2.982-2.9 2.96 2.96 0 0 1 2.91 2.941 3.012 3.012 0 0 1-2.949 2.951zm-1.008-2.983a1.024 1.024 0 0 0 1.017 1.044 1.007 1.007 0 0 0 1.032-1.021 1.027 1.027 0 0 0-1.017-1.029h-.017a1.048 1.048 0 0 0-1.014 1.009zm-5.8 2.983a3 3 0 0 1-2.945-2.949 2.957 2.957 0 0 1 2.958-2.945 2.931 2.931 0 0 1 2.939 2.952 2.975 2.975 0 0 1-2.919 2.942zm-1.022-2.987a1.031 1.031 0 0 0 1.018 1.049 1.04 1.04 0 0 0 1.055-1.017 1.075 1.075 0 0 0-1.039-1.034h-.012a1.065 1.065 0 0 0-1.022 1.001z" transform="translate(8515.7 -6465.655)" style="fill:#28dea7;stroke:transparent;stroke-miterlimit:10"/>
    </g>
</svg>
