<svg xmlns="http://www.w3.org/2000/svg" width="16" height="14.112" viewBox="0 0 16 14.112">
  <path id="Path_38921" data-name="Path 38921" d="M-852.2,1703.494c.228-.312.425-.621.653-.9a4.027,4.027,0,0,1,6.871.943,5.083,5.083,0,0,1-.5,5.124,13.875,13.875,0,0,1-2.49,2.736c-1.361,1.206-2.746,2.385-4.121,3.573-.291.253-.509.271-.775.035-1.7-1.494-3.42-2.975-5.093-4.5a8.043,8.043,0,0,1-2.062-2.75,4.835,4.835,0,0,1,.5-5.047,3.987,3.987,0,0,1,6.376-.112C-852.619,1702.88-852.423,1703.184-852.2,1703.494Z" transform="translate(860.205 -1701.062)" fill="#ff4b4b"/>
</svg>
