<svg xmlns="http://www.w3.org/2000/svg" width="15.345" height="16.836" viewBox="0 0 15.345 16.836">
    <path data-name="Path 38113" d="M-230.444-16.345a7.76 7.76 0 0 1 4.632-7.019 5.4 5.4 0 0 1-.754-8.234 5.335 5.335 0 0 1 7.575 0 5.207 5.207 0 0 1 1.469 2.71 5.275 5.275 0 0 1-.291 3.1 5.331 5.331 0 0 1-1.947 2.407 7.788 7.788 0 0 1 4.66 7.041h-1.538a6.107 6.107 0 0 0-2.456-4.883 5.892 5.892 0 0 0-3.881-1.226 6.135 6.135 0 0 0-5.937 6.1zm7.668-7.645a3.8 3.8 0 0 0 3.832-3.769 3.8 3.8 0 0 0-3.838-3.878 3.784 3.784 0 0 0-3.816 3.781 3.8 3.8 0 0 0 3.822 3.867z" transform="translate(230.444 33.175)" style="fill:#28dea7"/>
</svg>
