<svg xmlns="http://www.w3.org/2000/svg" width="90.296" height="31.616" viewBox="0 0 90.296 31.616">
    <path data-name="Path 38900" d="M14.751 31.576a33.745 33.745 0 0 1 3.178-6.21 66.824 66.824 0 0 1 8.783-10.925c.931-.955 1.883-1.9 2.877-2.783a45.27 45.27 0 0 1 3.209-2.631 28.968 28.968 0 0 1 5.989-3.313 35.677 35.677 0 0 1 6.9-2.129c.647-.128 1.312-.194 1.952-.357a.634.634 0 0 0 .35-1.111A5.648 5.648 0 0 0 43.911.049 9.83 9.83 0 0 0 40.2.575a25.39 25.39 0 0 0-6.252 3.157 42.044 42.044 0 0 0-5.886 4.708 72.864 72.864 0 0 0-6.654 7.21 47.324 47.324 0 0 0-5.826 9.166 22.938 22.938 0 0 0-1.717 4.722 2.422 2.422 0 0 0-.021 1.166 3.271 3.271 0 0 0 .609.883l-.471.035v.021h1.066c0-.007 0-.014.007-.021-.086-.011-.172-.022-.304-.046z" transform="translate(7.142 -.028)" style="fill:#fff"/>
    <path data-name="Path 38901" d="M37.228 20.042c.852 0 1.658.01 2.465-.014.094 0 .235-.18.26-.3.377-1.949.765-3.9 1.087-5.857a13.071 13.071 0 0 0 .222-2.742 2.454 2.454 0 0 0-2.233-2.448 4.342 4.342 0 0 0-3.521 1.035c-.384.318-.755.651-1.063.917.059-.488.135-1.1.211-1.738H32.34c-.685 3.711-1.364 7.4-2.056 11.144.852 0 1.644.01 2.437-.014.09 0 .228-.184.253-.3.184-.89.322-1.786.516-2.673.267-1.233.492-2.475.865-3.677a3.879 3.879 0 0 1 1.925-2.347 1.448 1.448 0 0 1 2.277 1.472.344.344 0 0 1-.014.083c-.246 1.454-.485 2.908-.741 4.362-.173 1.016-.373 2.031-.574 3.097z" transform="translate(15.694 4.431)" style="fill:#fff"/>
    <path data-name="Path 38902" d="M59.344 11.221c.173-.855.343-1.693.516-2.558-2.015-.215-3.161.924-4.109 2.447.069-.73.135-1.464.208-2.233-.679 0-1.288.017-1.9-.007-.336-.014-.412.114-.46.429q-.493 3.3-1.038 6.594c-.228 1.367-.512 2.728-.776 4.122h2.634c.031-.145.062-.284.09-.422.339-1.7.62-3.406 1.035-5.085.543-2.194 1.744-3.194 3.8-3.287z" transform="translate(26.838 4.433)" style="fill:#fff"/>
    <path data-name="Path 38903" d="M19.572 9.529c-.028-.336-.035-.935-.128-1.52a11.413 11.413 0 0 0-2.555-5.628 4.869 4.869 0 0 0-.959-.89 1.981 1.981 0 0 0-.755-.145c-.01.211-.024.422-.035.637a.785.785 0 0 0 .007.087c.273 1.738.509 3.482.834 5.213.4 2.115.866 4.22 1.319 6.324a3.5 3.5 0 0 0 .336.9c.26.491.692.488.98.007a3.394 3.394 0 0 0 .277-.616 13.807 13.807 0 0 0 .679-4.369z" transform="translate(7.846 .654)" style="fill:#fff"/>
    <path data-name="Path 38904" d="m14.751 31.575.312.048c0 .007 0 .014-.007.021H13.99v-.021l.471-.034a3.276 3.276 0 0 1-.609-.883 2.422 2.422 0 0 1 .021-1.166 22.937 22.937 0 0 1 1.717-4.721 47.326 47.326 0 0 1 5.826-9.166 72.869 72.869 0 0 1 6.654-7.21 41.4 41.4 0 0 1 5.882-4.707A25.39 25.39 0 0 1 40.2.578a9.752 9.752 0 0 1 3.715-.526 5.648 5.648 0 0 1 4.078 2.07.633.633 0 0 1-.35 1.111c-.64.163-1.305.225-1.952.357a35.677 35.677 0 0 0-6.9 2.129A29.131 29.131 0 0 0 32.8 9.031a44.8 44.8 0 0 0-3.209 2.631c-1 .886-1.946 1.828-2.877 2.783a66.86 66.86 0 0 0-8.783 10.924 33.192 33.192 0 0 0-3.18 6.206z" transform="translate(7.144 -.027)" style="fill:#fe4c00"/>
    <path data-name="Path 38905" d="M3.685 15.626c-.381 1.966-.748 3.884-1.122 5.819H.005a1.242 1.242 0 0 1 0-.253q1.065-5.6 2.133-11.2c.218-1.142.422-2.288.647-3.427.024-.125.145-.312.246-.329a12.635 12.635 0 0 1 5.986.014 3.872 3.872 0 0 1 2.835 4.78 5.51 5.51 0 0 1-4.559 4.47 10.153 10.153 0 0 1-3.608.126zm.4-2.132c.679.017 1.288.083 1.887.042a3.384 3.384 0 0 0 3.265-2.828 2.086 2.086 0 0 0-1.17-2.4 4.88 4.88 0 0 0-2.763-.177c-.1.017-.232.194-.263.318-.114.481-.194.973-.284 1.461-.217 1.153-.435 2.309-.67 3.583z" transform="translate(0 3.005)" style="fill:#161429"/>
    <path data-name="Path 38906" d="M16.713 20.018h-2.451c.059-.8.118-1.568.18-2.413-.332.447-.6.852-.921 1.219a4.029 4.029 0 0 1-3.555 1.454 3.137 3.137 0 0 1-2.738-2.648 7.444 7.444 0 0 1 1.1-5.463C10.07 9.4 12.7 8.431 15.851 8.676c.7.055 1.4.239 2.1.336.356.048.391.222.325.526-.35 1.693-.672 3.393-1.021 5.086a23.961 23.961 0 0 0-.523 5.117c-.002.083-.012.166-.019.277zM15.359 10.8a3.833 3.833 0 0 0-2.991.447 5.854 5.854 0 0 0-2.444 5.47A1.548 1.548 0 0 0 12.157 18a3.174 3.174 0 0 0 1.43-1.232 6.742 6.742 0 0 0 1.083-2.528c.23-1.14.454-2.271.689-3.44z" transform="translate(3.678 4.434)" style="fill:#161429"/>
    <path data-name="Path 38907" d="M27.226 20.3a4.3 4.3 0 0 1-4.521-4.528 7.085 7.085 0 0 1 2.517-5.729 5.734 5.734 0 0 1 5.348-1.212 3.889 3.889 0 0 1 3.022 3.479 6.962 6.962 0 0 1-3.022 7.034 5.65 5.65 0 0 1-3.344.956zm-1.772-4.742a4.2 4.2 0 0 0 0 .467 2.409 2.409 0 0 0 .966 1.862 2.17 2.17 0 0 0 2.8-.318 5.853 5.853 0 0 0 1.686-4.815 2.161 2.161 0 0 0-3.8-1.353 5.87 5.87 0 0 0-1.652 4.156z" transform="translate(11.767 4.424)" style="fill:#161429"/>
    <path data-name="Path 38908" d="M37.226 20.041c.2-1.066.4-2.08.578-3.1.256-1.45.5-2.908.741-4.361 0-.028.01-.055.014-.083a1.448 1.448 0 0 0-2.278-1.464 3.88 3.88 0 0 0-1.925 2.347c-.374 1.2-.6 2.444-.866 3.676-.19.886-.332 1.783-.516 2.672-.024.118-.163.3-.253.3-.793.024-1.586.014-2.437.014.689-3.742 1.371-7.432 2.056-11.142h2.316l-.211 1.738c.3-.267.675-.6 1.063-.917a4.355 4.355 0 0 1 3.522-1.037 2.454 2.454 0 0 1 2.233 2.447 13.048 13.048 0 0 1-.222 2.741c-.325 1.959-.713 3.9-1.087 5.857-.021.114-.166.294-.26.3-.81.022-1.616.012-2.468.012z" transform="translate(15.695 4.432)" style="fill:#161429"/>
    <path data-name="Path 38909" d="M46.553 17.5c.08.6.166 1.142.222 1.693a.362.362 0 0 1-.132.3 7.536 7.536 0 0 1-6.065.339 3.726 3.726 0 0 1-2.24-3.42A7.133 7.133 0 0 1 41.6 9.509a5.04 5.04 0 0 1 4.767-.53 2.8 2.8 0 0 1 1.845 2.71 2.913 2.913 0 0 1-1.512 2.767 8.838 8.838 0 0 1-4.141.986c-.533.031-1.073 0-1.6 0a2.175 2.175 0 0 0 1.655 2.648 5.822 5.822 0 0 0 3.459-.388c.144-.051.283-.117.48-.202zm-5.345-3.987c.734-.045 1.423-.055 2.1-.138a7.075 7.075 0 0 0 1.44-.339 1.349 1.349 0 0 0 .942-1.405 1.23 1.23 0 0 0-1.26-.99 3.312 3.312 0 0 0-3.222 2.873z" transform="translate(19.855 4.419)" style="fill:#161429"/>
    <path data-name="Path 38910" d="M53.416 17.542c.073.54.159 1.087.2 1.634a.44.44 0 0 1-.2.353 7.572 7.572 0 0 1-5.913.353 3.673 3.673 0 0 1-2.243-2.9 7.316 7.316 0 0 1 3.174-7.464 5 5 0 0 1 4.966-.451 3.069 3.069 0 0 1 .367 5.252 6.888 6.888 0 0 1-3.3 1.035c-.886.08-1.776.1-2.666.152a2.227 2.227 0 0 0 2.126 2.68 6.408 6.408 0 0 0 3.192-.564c.076-.035.156-.062.235-.093a.371.371 0 0 1 .062.013zm-5.335-4.106a12.116 12.116 0 0 0 1.589-.014 11.57 11.57 0 0 0 2.06-.453 1.193 1.193 0 0 0 .793-1.392c-.09-.533-.492-.845-1.163-.928a3.258 3.258 0 0 0-3.279 2.787z" transform="translate(23.39 4.416)" style="fill:#161429"/>
    <path data-name="Path 38911" d="M59.344 11.219c-2.056.093-3.258 1.094-3.8 3.292-.412 1.679-.692 3.389-1.035 5.085-.028.138-.059.274-.09.422h-2.632c.263-1.395.547-2.755.776-4.122Q53.113 12.6 53.6 9.3c.049-.315.125-.443.46-.429.609.028 1.219.007 1.9.007-.073.768-.138 1.5-.208 2.233.948-1.522 2.093-2.661 4.108-2.446-.173.858-.342 1.699-.516 2.554z" transform="translate(26.838 4.434)" style="fill:#161429"/>
    <path data-name="Path 38912" d="M19.575 9.528a13.619 13.619 0 0 1-.685 4.372 3.4 3.4 0 0 1-.277.616c-.284.481-.72.485-.98-.007a3.549 3.549 0 0 1-.336-.9c-.453-2.1-.921-4.21-1.319-6.325-.325-1.727-.557-3.476-.834-5.214a.669.669 0 0 1-.007-.087c.01-.211.024-.422.038-.634a2.049 2.049 0 0 1 .755.145 4.969 4.969 0 0 1 .959.89 11.384 11.384 0 0 1 2.555 5.629 14.861 14.861 0 0 1 .131 1.515z" transform="translate(7.844 .655)" style="fill:#fe4c00"/>
    <path data-name="Path 38913" d="M59.065 11.255a1.287 1.287 0 0 1-1.319-1.312 1.312 1.312 0 0 1 2.624-.01 1.278 1.278 0 0 1-1.305 1.322zm-1.118-1.291a1.113 1.113 0 1 0 2.226-.028 1.113 1.113 0 1 0-2.226.028z" transform="translate(29.926 4.43)" style="fill:#fff"/>
    <path data-name="Path 38914" d="M59.221 10.515c-.315-.2-.183-.751-.7-.637l-.083.544c-.028 0-.052 0-.08-.007V9.026a1.566 1.566 0 0 1 .526.014c.131.048.332.287.308.322-.231.37-.013.73.029 1.153zm-.72-.748a3.15 3.15 0 0 0 .488-.249.282.282 0 0 0-.042-.246 2.026 2.026 0 0 0-.447-.156z" transform="translate(30.242 4.626)" style="fill:#fff"/>
    <path data-name="Path 38915" d="M58.453 9.731V9.08a2.225 2.225 0 0 1 .447.156c.048.031.076.222.041.246a2.865 2.865 0 0 1-.488.249z" transform="translate(30.293 4.663)" style="fill:#fff"/>
</svg>
