<svg xmlns="http://www.w3.org/2000/svg" width="93.139" height="24.504" viewBox="0 0 93.139 24.504">
    <path data-name="Union 18" d="M0 21.369v-.707c.1-.5.207-1 .282-1.51Q1.235 12.724 2.169 6.3c.255-1.73.507-3.463.755-5.188.108-.751.468-1.1 1.182-1.1 2.421 0 4.841-.04 7.26.02a11.341 11.341 0 0 1 2.873.443c2.365.7 3.565 2.824 3.175 5.432-.017.1-.032.2-.048.307-.127-.044-.248-.1-.38-.132a10.814 10.814 0 0 0-2.28-.551 11.193 11.193 0 0 1 2.28.551c.128.032.253.088.377.132a.057.057 0 0 1 .019.056 1.45 1.45 0 0 0-.048.112.083.083 0 0 0-.024.068c-.463 3.559-2.437 6.391-6.1 6.962a31.588 31.588 0 0 1-3.891.188 1.367 1.367 0 0 0-1.105.463v.005a2.847 2.847 0 0 0-.152.475c-.371 2.408-.736 4.825-1.1 7.233-1.363 0-2.722-.012-4.088 0H.846A.892.892 0 0 1 0 21.369zm6.224-8.088zm.789-5.42zM8.14 5.5a.846.846 0 0 0-.9.819.846.846 0 0 1 .9-.819z" style="fill:#0f6287"/>
    <path data-name="Path 38891" d="M45.27 13.667h-1.314c-.57 0-.793.2-.882.808q-.268 1.8-.524 3.6c-.084.59-.207.717-.749.717h-2.192c-.58 0-.718-.168-.629-.786q.326-2.266.662-4.529.683-4.627 1.363-9.251c.092-.629.3-.835.892-.835 1.838 0 3.674 0 5.513.017a4.851 4.851 0 0 1 2.153.524 3.206 3.206 0 0 1 1.8 2.79 7.782 7.782 0 0 1-.816 4.163A4.915 4.915 0 0 1 46.4 13.6c-.435.048-.874.054-1.13.067zm-1.619-3.1h.381a14 14 0 0 0 1.67-.072 1.937 1.937 0 0 0 1.79-1.924c.192-1.24-.215-1.872-1.366-2.043-.465-.069-.943-.039-1.416-.061a.471.471 0 0 0-.527.466c-.174 1.191-.347 2.387-.532 3.63z" transform="translate(24.696 2.102)" style="fill:#189bd6"/>
    <path data-name="Path 38892" d="M22.6 13.664c-.414 0-.828-.006-1.24 0a.716.716 0 0 0-.765.719 533.748 533.748 0 0 0-.514 3.523c-.095.67-.317.885-.936.888-.718 0-1.434.006-2.153 0-.432 0-.591-.218-.524-.67l2.023-13.822c.1-.722.3-.915.984-.912 1.8 0 3.6-.011 5.4.022a5.781 5.781 0 0 1 1.542.259A3.37 3.37 0 0 1 28.9 7.266a8.158 8.158 0 0 1-.739 3.407 4.941 4.941 0 0 1-4.246 2.927c-.435.05-.874.052-1.312.077a.026.026 0 0 1-.003-.013zm-1.445-3.129c.665 0 1.276.05 1.874-.011a2.2 2.2 0 0 0 2-2.627 1.26 1.26 0 0 0-1.015-1.3 4.917 4.917 0 0 0-1.117-.13c-1.235-.019-1.133-.135-1.319 1.152-.138.968-.278 1.932-.421 2.917z" transform="translate(10.432 2.103)" style="fill:#161429"/>
    <path data-name="Path 38893" d="M3.145 19.37q.548-3.618 1.1-7.231a3.313 3.313 0 0 1 .151-.477 1.351 1.351 0 0 1 1.111-.462 31.5 31.5 0 0 0 3.893-.191c3.664-.573 5.641-3.4 6.1-6.963.008-.022.018-.044.025-.066.015-.039.033-.074.049-.113a3.245 3.245 0 0 1 1.782 2.6 8.449 8.449 0 0 1-1.874 6.787 5.838 5.838 0 0 1-3.925 1.93c-.6.075-1.212.075-1.818.094a.948.948 0 0 0-1.043.951c-.245 1.61-.481 3.223-.718 4.832-.11.742-.409 1.028-1.094 1.028H3.565c-.568 0-.767-.265-.678-.866l.258-1.853z" transform="translate(1.815 2.403)" style="fill:#189ad6"/>
    <path data-name="Path 38894" d="M54.764 7.749c.166-1.125.166-1.125 1.125-1.125h1.606c.626 0 .757.154.66.827-.22 1.536-.45 3.071-.675 4.607-.187 1.276-.381 2.553-.56 3.832-.117.838-.294 1.012-1.092 1.012h-1.751c-.473 0-.624-.207-.542-.719.02-.135.031-.276.056-.5A4.923 4.923 0 0 1 51.348 17a4.592 4.592 0 0 1-2.6-.063 3.839 3.839 0 0 1-2.608-3.568 6.3 6.3 0 0 1 4.1-6.779 5.329 5.329 0 0 1 3.168.039 2.341 2.341 0 0 1 1.356 1.12zm-3.2 6.578a2.771 2.771 0 0 0 2.702-2.227 2.137 2.137 0 0 0-1.631-2.881 2.8 2.8 0 0 0-3.1 2.363c-.335 1.626.494 2.751 2.025 2.745z" transform="translate(29.229 3.99)" style="fill:#189bd6"/>
    <path data-name="Path 38895" d="M32.255 7.735c.028-.121.043-.171.051-.223.115-1.047.325-.879 1.038-.885.608 0 1.217-.006 1.826 0 .412.006.578.221.516.648q-.648 4.412-1.294 8.826c-.082.562-.333.8-.857.8h-1.9c-.529 0-.637-.132-.6-.7.008-.124 0-.248 0-.436-.146.119-.238.2-.33.273a4.555 4.555 0 0 1-4.656.824 3.766 3.766 0 0 1-2.368-3.214A6.284 6.284 0 0 1 28.1 6.5a5.218 5.218 0 0 1 2.848.141 2.276 2.276 0 0 1 1.307 1.094zm-3.209 6.594a2.8 2.8 0 0 0 2.771-2.429 2.1 2.1 0 0 0-1.657-2.674 2.811 2.811 0 0 0-3.15 2.53c-.224 1.558.578 2.572 2.036 2.572z" transform="translate(14.959 3.989)" style="fill:#161429"/>
    <path data-name="Path 38896" d="M36.762 12.279c1.11-1.762 2.2-3.462 3.26-5.18a1.035 1.035 0 0 1 .992-.576c.693.028 1.388-.011 2.079.019a.658.658 0 0 1 .5.259.749.749 0 0 1-.1.593q-4.02 6.281-8.062 12.548a.919.919 0 0 1-.859.474c-.693-.011-1.388.017-2.079-.017a.76.76 0 0 1-.573-.276c-.077-.13.02-.447.128-.617q1.1-1.728 2.25-3.426a.7.7 0 0 0 .087-.678q-1.269-3.961-2.521-7.925a3.142 3.142 0 0 1-.1-.336c-.069-.361.09-.6.432-.609q1.2-.021 2.409 0c.381.006.6.232.729.7Q36 9.59 36.66 11.954c.026.088.054.174.102.325z" transform="translate(20.133 4.086)" style="fill:#161429"/>
    <path data-name="Path 38898" d="M55.241 18.794c-.327 0-.657.006-.984 0-.417-.008-.573-.2-.509-.642q.491-3.428.99-6.853.533-3.659 1.071-7.313c.072-.5.166-.593.642-.593.706 0 1.411-.006 2.117 0 .378 0 .55.209.5.59Q58.032 11.011 57 18.03c-.084.562-.315.761-.839.766z" transform="translate(34.066 2.102)" style="fill:#189bd6"/>
    <path data-name="Path 38899" d="M10.592 4a.069.069 0 0 1 .026-.066.7.7 0 0 1-.026.066z" transform="translate(6.715 2.447)" style="fill:#253b80"/>
</svg>
