<svg xmlns="http://www.w3.org/2000/svg" width="56" height="56" viewBox="0 0 56 56">
    <g data-name="Group 25458">
        <path data-name="Path 38574" d="M1542.383 4164.123c0-2.257-.01-4.453 0-6.649a2.15 2.15 0 0 1 2.088-2.418c.264-.007.528 0 .831 0v-3.1c-.308 0-.61.01-.912 0a2.122 2.122 0 0 1-2-2.24q-.043-5.144 0-10.288a2.089 2.089 0 0 1 2.119-2.233q5.982-.01 11.964 0h25.354c1.717 0 2.432.827 2.432 2.813v9.011c0 2.143-.66 2.915-2.515 2.945-.122 0-.243.012-.4.021v3.073c.3 0 .6-.01.9 0a2.085 2.085 0 0 1 2.005 2.215q.047 5.144 0 10.288a2.134 2.134 0 0 1-1.927 2.252c-.307.028-.618 0-1.022 0v3.01h.934a2.087 2.087 0 0 1 2.012 2.209q.049 5.144 0 10.288a2.114 2.114 0 0 1-2.173 2.256c-4.9.005-9.795.011-14.692-.01a1.073 1.073 0 0 0-1.112.706c-2.67 5.159-8.564 6.426-12.734 2.776-.1-.086-.2-.169-.207-.178a24.571 24.571 0 0 1-3.019 1.717 7.417 7.417 0 0 1-7.619-1.182.626.626 0 0 0-.915.006c-2.971 2.178-6.072 2.4-9.137.394a9.71 9.71 0 0 1-4.35-9.14 9.6 9.6 0 0 1 5.373-8.634c.3-.152.5-.254.527-.721.284-4.795 3.629-8.7 7.8-9.144.103-.004.203-.019.395-.043zm16.422 27.526c.431-.048.868-.062 1.293-.15a8.1 8.1 0 0 0 6.083-7.639c.2-4.075-1.842-7.5-5.226-8.688a1.126 1.126 0 0 1-.863-1.1c-.553-5.628-6.111-8.554-10.205-5.387-.829.642-.895.631-1.581-.249a6.693 6.693 0 0 0-8.029-2.281 8.358 8.358 0 0 0-4.78 7.728 1.237 1.237 0 0 1-.863 1.375 7.893 7.893 0 0 0-5 7.23 8.321 8.321 0 0 0 3.824 8.118 6.511 6.511 0 0 0 8.033-.8c.7-.643.787-.643 1.487-.013a6.624 6.624 0 0 0 9.5-.348c.614-.631.823-.642 1.419-.023a6.887 6.887 0 0 0 4.903 2.227zm4.483-41.219h18.656c.817 0 .981-.189.982-1.12v-9.434c0-.984-.153-1.169-1.006-1.17h-37.187c-.858 0-1.01.182-1.011 1.163v9.221c0 1.236.09 1.341 1.159 1.341zm-19.571 13.57a21.7 21.7 0 0 1 3 1.216 23.787 23.787 0 0 1 2.614 2.036 7.136 7.136 0 0 1 9.3.724 1.033 1.033 0 0 0 .681.227q11.311.059 22.621.093c.81 0 .99-.2.991-1.116v-9.224c0-1.278-.116-1.41-1.243-1.41h-36.761a3.591 3.591 0 0 0-.557.015.713.713 0 0 0-.646.793V4164zm23.49 22a1.916 1.916 0 0 0 .272.042h14.632c.621 0 .812-.253.813-1.024q.006-4.719 0-9.438c0-1.093-.121-1.236-1.063-1.237h-18.229c-.193 0-.387.023-.641.04 4.147 3.847 5.121 6.535 4.216 11.617zm-20.5-31h33.218v-2.99h-33.218zm33.233 14.877h-19.723l1.107 2.9h18.616z" transform="translate(-1528.275 -4137.192)" style="fill:#fafafb"/>
        <path data-name="Path 38575" d="M1681.554 4351.979a2.61 2.61 0 0 1-2.518-1.872c-.122-.431-.144-.863.381-1.03s.742.165.893.612a1.24 1.24 0 0 0 1.6.895 1.273 1.273 0 0 0 .823-1.493c-.128-.576-.589-.908-1.357-.979a2.589 2.589 0 0 1-.3-5.134 2.615 2.615 0 0 1 2.867 1.612c.165.437.249.9-.292 1.113-.524.206-.779-.117-.961-.6a1.211 1.211 0 0 0-1.45-.79 1.247 1.247 0 0 0 .166 2.463c.143.024.29.031.434.048a2.584 2.584 0 0 1-.284 5.15z" transform="translate(-1653.999 -4301.902)" style="fill:#fafafb"/>
        <path data-name="Path 38576" d="M1638.559 4347.831v3.047c0 .207.041.464-.062.607-.151.208-.42.463-.631.456s-.444-.287-.617-.489c-.075-.087-.03-.281-.03-.426v-7.123c0-.771.182-.949.96-.954.646 0 1.292-.01 1.937 0a2.439 2.439 0 1 1 .061 4.877c-.517.025-1.034.005-1.618.005zm.038-3.555v2.2c.535 0 1.049.016 1.562 0a1.062 1.062 0 0 0 1.077-1 1.044 1.044 0 0 0-.939-1.184 16.494 16.494 0 0 0-1.697-.016z" transform="translate(-1619.171 -4301.9)" style="fill:#fafafb"/>
        <path data-name="Path 38577" d="m1587.1 4350.389 1.261-3.233q.486-1.247.969-2.5c.162-.417.423-.693.9-.51s.5.577.34.986c-.934 2.421-1.866 4.843-2.836 7.25a.91.91 0 0 1-.665.5.944.944 0 0 1-.65-.533c-.957-2.39-1.873-4.8-2.807-7.194-.177-.455-.148-.837.355-1.019.483-.173.733.129.891.538l2.044 5.286c.036.101.085.193.198.429z" transform="translate(-1574.37 -4302.856)" style="fill:#fafafb"/>
        <path data-name="Path 38578" d="M1599.226 4299.444c-.677-.15-1.179-.284-1.689-.369a4.368 4.368 0 0 0-4.157 1.271c-.31.328-.664.486-1.028.149-.388-.36-.251-.744.081-1.085 1.758-1.805 3.887-2.055 6.211-1.477a1.614 1.614 0 0 1 .7.231 1.061 1.061 0 0 1 .373.741c-.032.223-.361.407-.491.539z" transform="translate(-1581.552 -4266.989)" style="fill:#fafafb"/>
        <path data-name="Path 38579" d="M1585.71 4319.428c-.008.906-.437 1.572-.878 1.54-.4-.03-.694-.27-.637-.683.1-.713.336-1.4.868-1.291.273.056.502.331.647.434z" transform="translate(-1574.85 -4284.337)" style="fill:#fafafb"/>
        <path data-name="Path 38580" d="M1776.541 4164.249a2.545 2.545 0 0 1-2.548 2.586 2.591 2.591 0 0 1-2.564-2.529 2.559 2.559 0 0 1 2.568-2.574 2.52 2.52 0 0 1 2.544 2.517zM1774 4165.5a1.227 1.227 0 1 0-1.227-1.233 1.234 1.234 0 0 0 1.227 1.233z" transform="translate(-1731.175 -4157.634)" style="fill:#fafafb"/>
        <path data-name="Path 38581" d="M1814.569 4164.19a2.518 2.518 0 0 1 2.6-2.455 2.551 2.551 0 1 1-2.6 2.455zm2.514 1.316a1.227 1.227 0 1 0-1.19-1.273 1.244 1.244 0 0 0 1.19 1.273z" transform="translate(-1767.204 -4157.636)" style="fill:#fafafb"/>
        <path data-name="Path 38582" d="M1717.263 4172.182h2.927c.471 0 .866.134.858.667s-.4.654-.873.652q-2.865-.012-5.73 0c-.457 0-.866-.077-.88-.634-.015-.6.415-.686.894-.683.936.001 1.87-.002 2.804-.002z" transform="translate(-1682.905 -4166.337)" style="fill:#fafafb"/>
        <path data-name="Path 38583" d="M1635.558 4157.445c0 .207.016.415 0 .62-.038.4-.264.725-.665.643a.977.977 0 0 1-.637-.6 3.275 3.275 0 0 1 0-1.413.89.89 0 0 1 .639-.568c.221 0 .5.331.64.581.1.192.021.485.021.733z" transform="translate(-1616.634 -4152.968)" style="fill:#fafafb"/>
        <path data-name="Path 38584" d="M1672.33 4157.227c0 .207.016.416 0 .621-.036.4-.232.674-.657.681a.625.625 0 0 1-.674-.658 11.415 11.415 0 0 1 0-1.3.666.666 0 1 1 1.332-.023 6.507 6.507 0 0 1-.001.679z" transform="translate(-1647.338 -4152.766)" style="fill:#fafafb"/>
        <path data-name="Path 38585" d="M1672.331 4181.878c0 .207.015.415 0 .62-.036.4-.238.675-.659.681a.631.631 0 0 1-.672-.663 11.528 11.528 0 0 1 0-1.3.629.629 0 0 1 .657-.676.636.636 0 0 1 .676.659 6.679 6.679 0 0 1-.002.679z" transform="translate(-1647.34 -4173.299)" style="fill:#fafafb"/>
        <path data-name="Path 38586" d="M1635.694 4181.875c0 .207.012.415 0 .62a.646.646 0 0 1-.651.688.629.629 0 0 1-.68-.654 10.486 10.486 0 0 1 0-1.3.631.631 0 0 1 .651-.684c.459-.005.662.281.685.711.001.205-.004.412-.005.619z" transform="translate(-1616.77 -4173.304)" style="fill:#fafafb"/>
        <path data-name="Path 38587" d="M1653.969 4157.454c0 .248.083.541-.021.731-.125.23-.411.517-.624.516a.827.827 0 0 1-.605-.522 3.823 3.823 0 0 1 0-1.475.868.868 0 0 1 .622-.564c.217 0 .492.333.622.582.1.195.02.485.02.732z" transform="translate(-1632.043 -4152.976)" style="fill:#fafafb"/>
        <path data-name="Path 38588" d="M1690.667 4157.211c0 .248.085.544-.021.731a1.093 1.093 0 0 1-.657.555c-.182.019-.531-.316-.582-.543a5.891 5.891 0 0 1-.036-1.356c.007-.437.216-.715.679-.7.429.014.615.287.624.695v.619z" transform="translate(-1662.669 -4152.773)" style="fill:#fafafb"/>
        <path data-name="Path 38589" d="M1654.027 4181.832c0 .248.082.539-.021.732-.132.25-.41.583-.626.583a.89.89 0 0 1-.62-.577 5.467 5.467 0 0 1-.03-1.356.65.65 0 1 1 1.3 0c.009.206 0 .413 0 .619z" transform="translate(-1632.092 -4173.306)" style="fill:#fafafb"/>
        <path data-name="Path 38590" d="M1690.632 4182.052a2.05 2.05 0 0 1-.022.794c-.1.22-.4.5-.587.49a.847.847 0 0 1-.632-.5 4.333 4.333 0 0 1-.008-1.536c.038-.22.4-.555.585-.536a1.085 1.085 0 0 1 .653.555c.106.188.021.483.021.731z" transform="translate(-1662.642 -4173.489)" style="fill:#fafafb"/>
        <path data-name="Path 38591" d="M1776.542 4258.364a2.518 2.518 0 0 1-2.519 2.543 2.557 2.557 0 0 1-2.594-2.549 2.589 2.589 0 0 1 2.6-2.558 2.553 2.553 0 0 1 2.513 2.564zm-2.565 1.212a1.222 1.222 0 1 0-1.2-1.258 1.225 1.225 0 0 0 1.2 1.258z" transform="translate(-1731.177 -4232.998)" style="fill:#fafafb"/>
        <path data-name="Path 38592" d="M1817.122 4260.907a2.516 2.516 0 0 1-2.556-2.5 2.552 2.552 0 0 1 2.534-2.6 2.587 2.587 0 0 1 2.576 2.581 2.559 2.559 0 0 1-2.554 2.519zm1.21-2.56a1.222 1.222 0 1 0-1.233 1.227 1.232 1.232 0 0 0 1.233-1.227z" transform="translate(-1767.202 -4232.998)" style="fill:#fafafb"/>
        <path data-name="Path 38593" d="M1717.306 4267.536h-2.868c-.464 0-.858-.108-.873-.653s.372-.69.837-.691h5.8c.472 0 .861.16.848.687s-.4.665-.875.66c-.957-.011-1.913-.003-2.869-.003z" transform="translate(-1682.905 -4241.648)" style="fill:#fafafb"/>
        <path data-name="Path 38594" d="M1635.707 4251.381v.559c-.009.43-.207.739-.652.754s-.67-.287-.689-.715a13.882 13.882 0 0 1 0-1.241.636.636 0 0 1 .65-.688c.455-.008.667.275.687.71.012.206.004.414.004.621z" transform="translate(-1616.782 -4228.504)" style="fill:#fafafb"/>
        <path data-name="Path 38595" d="M1672.243 4251.391a6.089 6.089 0 0 1 0 .683c-.045.4-.288.719-.681.631a1 1 0 0 1-.624-.621 4.721 4.721 0 0 1-.022-1.359c.025-.4.28-.717.678-.624a1.251 1.251 0 0 1 .632.617c.1.173.019.445.019.672z" transform="translate(-1647.252 -4228.533)" style="fill:#fafafb"/>
        <path data-name="Path 38596" d="M1690.6 4251.566c0 .227.077.5-.018.671-.139.253-.4.6-.616.6a.874.874 0 0 1-.631-.566 3.8 3.8 0 0 1 0-1.474c.043-.222.408-.552.593-.531a1.088 1.088 0 0 1 .646.564c.1.19.021.484.021.731z" transform="translate(-1662.6 -4228.686)" style="fill:#fafafb"/>
        <path data-name="Path 38597" d="M1653.983 4251.419c0 .25.083.544-.021.738-.126.235-.411.535-.624.532a.839.839 0 0 1-.607-.54 4.017 4.017 0 0 1 0-1.488.919.919 0 0 1 .6-.562c.365-.086.627.173.66.571.02.248 0 .5 0 .749z" transform="translate(-1632.057 -4228.532)" style="fill:#fafafb"/>
        <path data-name="Path 38598" d="M1814.565 4352.095a2.521 2.521 0 0 1 2.536-2.526 2.549 2.549 0 1 1 .019 5.1 2.529 2.529 0 0 1-2.555-2.574zm3.766.015a1.221 1.221 0 1 0-1.228 1.235 1.248 1.248 0 0 0 1.227-1.236z" transform="translate(-1767.201 -4308.742)" style="fill:#fafafb"/>
        <path data-name="Path 38599" d="M1776.542 4352.116a2.53 2.53 0 0 1-2.577 2.552 2.549 2.549 0 1 1 .061-5.1 2.52 2.52 0 0 1 2.516 2.548zm-1.331.046a1.218 1.218 0 1 0-1.276 1.182 1.236 1.236 0 0 0 1.277-1.182z" transform="translate(-1731.177 -4308.743)" style="fill:#fafafb"/>
    </g>
</svg>
