<svg xmlns="http://www.w3.org/2000/svg" width="56" height="56" viewBox="0 0 56 56">
    <g data-name="Group 25454">
        <path data-name="Path 38531" d="M2692.358 5037.133a1 1 0 0 0-.781-.922c-.612-.172-1.2-.421-1.8-.632a.9.9 0 0 1-.66-.936v-1.619c-1.427 0-2.794-.013-4.16.02-.145 0-.331.251-.419.426a3.06 3.06 0 0 1-5.836-1.3 3.053 3.053 0 0 1 5.839-1.269.614.614 0 0 0 .672.425c1.275-.019 2.55-.007 3.9-.007 0-.563.005-1.081 0-1.6a.917.917 0 0 1 .681-.977c.569-.192 1.121-.439 1.7-.6a1.053 1.053 0 0 0 .873-.96c-.593-.25-1.208-.512-1.825-.769-1.213-.5-2.421-1.017-3.643-1.5a1.189 1.189 0 0 1-.827-1.025c-.14-.984-.322-1.963-.468-2.947a.655.655 0 0 0-.56-.633 3.024 3.024 0 0 1-2.24-3.284 3.069 3.069 0 0 1 6.016-.428 3.015 3.015 0 0 1-1.3 3.335.514.514 0 0 0-.282.629c.159.811.255 1.633.428 2.439a.883.883 0 0 0 .436.552c1.619.7 3.253 1.36 4.9 2.038a1 1 0 0 0 .143-1.272c-.3-.52-.51-1.086-.786-1.619a.971.971 0 0 1 .205-1.269q1.708-1.681 3.391-3.385a.972.972 0 0 1 1.266-.232 7.643 7.643 0 0 1 .91.441 2.181 2.181 0 0 0 2.594.046 3.585 3.585 0 0 1 .984-.412 1.4 1.4 0 0 0 1.081-1.555c.027-2.1.02-4.208-.005-6.312a.8.8 0 0 0-.38-.526 8.723 8.723 0 0 1 .248-15.318c.793-.4 1.391-.049 1.4.851.016 1.748.018 3.495 0 5.242a.805.805 0 0 0 .472.846c.633.328 1.229.726 1.864 1.048a.814.814 0 0 0 .646 0 20.4 20.4 0 0 0 1.948-1.126.929.929 0 0 0 .374-.646c.031-1.748.013-3.494.019-5.241 0-1.076.593-1.429 1.533-.89a8.726 8.726 0 0 1 .237 15.13.976.976 0 0 0-.547.973c.029 1.859.011 3.719.014 5.58a3.945 3.945 0 0 0 .045.729c.106.55.3 1.049.946 1.168a.541.541 0 0 1 .1.041 6.738 6.738 0 0 0 2.289.868 5.932 5.932 0 0 0 2.2-.938.988.988 0 0 1 1.267.235q1.684 1.7 3.391 3.385a.977.977 0 0 1 .2 1.272c-.266.517-.465 1.069-.758 1.57a1.051 1.051 0 0 0 .113 1.327c1.677-.7 3.37-1.392 5.055-2.107a.576.576 0 0 0 .271-.376c.166-.885.325-1.773.432-2.667.02-.164-.174-.412-.335-.53a2.984 2.984 0 0 1-1.3-2.988 2.9 2.9 0 0 1 2-2.442 3.057 3.057 0 1 1 1.888 5.813.722.722 0 0 0-.624.7c-.128.948-.319 1.888-.448 2.835a1.238 1.238 0 0 1-.839 1.084c-1.653.664-3.3 1.354-4.943 2.035-.17.07-.338.147-.51.223a.979.979 0 0 0 .819.939c.524.14 1.027.356 1.539.542.749.271.879.453.881 1.233v1.421h.586c.883 0 1.769-.038 2.649.012a1.4 1.4 0 0 0 1.584-.82 2.911 2.911 0 0 1 3.526-1.26 3.083 3.083 0 0 1-.356 5.923 3.03 3.03 0 0 1-3.37-1.672.728.728 0 0 0-.807-.49c-1.183.027-2.367.011-3.551.014-.056 0-.112.014-.261.034v1.2c0 1.009-.074 1.116-1.038 1.464-.476.172-.946.373-1.435.5a1.031 1.031 0 0 0-.792.936c1.52.629 3.024 1.251 4.527 1.876 1.909.794 1.6.464 1.928 2.4.053.314.139.625.166.941.075.9.226 1.575 1.323 1.923a2.8 2.8 0 0 1 1.6 3.219 3.077 3.077 0 0 1-5.9.49 3 3 0 0 1 1.078-3.5.766.766 0 0 0 .379-.954c-.164-.731-.23-1.484-.385-2.217a.828.828 0 0 0-.389-.531c-1.636-.7-3.286-1.375-4.942-2.06a1 1 0 0 0-.136 1.28c.3.537.534 1.116.807 1.672a.927.927 0 0 1-.207 1.174q-1.741 1.726-3.471 3.464a.913.913 0 0 1-1.174.2.785.785 0 0 0-.05-.026c-.733-.332-1.493-.979-2.194-.919a9.636 9.636 0 0 0-2.811 1.093.763.763 0 0 0-.328.407c-.253.646-.487 1.3-.712 1.956a.956.956 0 0 1-1.021.7 412.339 412.339 0 0 0-4.848 0 .918.918 0 0 1-.977-.681 4.138 4.138 0 0 1-.2-.584 3.122 3.122 0 0 0-2.363-2.5 2.872 2.872 0 0 0-2.613.084c-1.658.869-1.441.924-2.8-.44-.9-.905-1.8-1.816-2.715-2.705a.993.993 0 0 1-.228-1.312c.269-.515.465-1.071.761-1.569a1.068 1.068 0 0 0-.113-1.318c-1.7.7-3.392 1.4-5.079 2.118a.573.573 0 0 0-.265.378c-.163.866-.32 1.735-.426 2.61a.734.734 0 0 0 .3.546 3.1 3.1 0 0 1 1.1 3.837 3.07 3.07 0 0 1-5.844-1.612 3.007 3.007 0 0 1 2.255-2.6.614.614 0 0 0 .532-.591c.146-.965.342-1.923.461-2.891a1.286 1.286 0 0 1 .914-1.146c1.656-.658 3.3-1.354 4.942-2.036.146-.055.291-.132.449-.199zm-1.55-3a3.069 3.069 0 0 0 .457.171 3.327 3.327 0 0 1 2.942 2.73.99.99 0 0 0 .137.307 3.546 3.546 0 0 1-.1 4.271c-.184.252-.142.445.1.672q1.143 1.088 2.236 2.229a.479.479 0 0 0 .675.121 11 11 0 0 1 1.577-.741 1.623 1.623 0 0 1 1.011-.037c1.16.428 2.308.9 3.429 1.421a1.724 1.724 0 0 1 .716.785c.255.518.385 1.1.616 1.629a.65.65 0 0 0 .46.341q1.634.045 3.269 0a.647.647 0 0 0 .464-.334c.237-.55.374-1.146.633-1.683a1.61 1.61 0 0 1 .7-.736 43.946 43.946 0 0 1 3.379-1.394 1.832 1.832 0 0 1 1.115.025c.548.179 1.049.5 1.585.721a.6.6 0 0 0 .521-.048c.879-.844 1.732-1.715 2.609-2.594-.3-.626-.574-1.242-.88-1.84a1.336 1.336 0 0 1-.038-1.237 24.164 24.164 0 0 0 1.039-2.55 2.3 2.3 0 0 1 1.879-1.764c.291-.055.56-.219.85-.292.336-.084.422-.274.416-.6q-.03-1.55 0-3.1a.492.492 0 0 0-.391-.57 12.142 12.142 0 0 1-1.639-.592 1.609 1.609 0 0 1-.748-.68c-.523-1.141-1-2.305-1.439-3.481a1.507 1.507 0 0 1 .039-.959c.211-.579.526-1.12.772-1.687a.5.5 0 0 0-.018-.437c-.864-.908-1.748-1.8-2.611-2.673-.67.318-1.255.571-1.818.869a1.46 1.46 0 0 1-1.391.032c-.88-.4-1.782-.75-2.752-1.152 0 1.5.028 2.908-.014 4.313a1.168 1.168 0 0 0 .652 1.2 8.671 8.671 0 0 1-6.462 15.849 8.664 8.664 0 0 1-2.481-15.934.858.858 0 0 0 .512-.875c-.033-1.163-.011-2.329-.011-3.494v-1.052c-.968.4-1.841.74-2.691 1.126a1.5 1.5 0 0 1-1.493-.039c-.436-.254-.923-.419-1.366-.663a.476.476 0 0 0-.674.126 67.694 67.694 0 0 1-2.2 2.186.531.531 0 0 0-.112.768 10 10 0 0 1 .711 1.528 1.537 1.537 0 0 1 .046.96q-.668 1.79-1.46 3.533a1.511 1.511 0 0 1-.719.639c-.542.252-1.133.4-1.683.635a.644.644 0 0 0-.336.461c-.034 1.174-.02 2.357-.02 3.589zm15.855 5.018a6.989 6.989 0 1 0-6.956-7.023 7 7 0 0 0 6.956 7.022zm-4.345-42.654a6.81 6.81 0 0 0-2.378 7.331 7.022 7.022 0 0 0 13.573-.233 6.771 6.771 0 0 0-2.448-7.1v.581c0 1.333-.007 2.667 0 4a1.132 1.132 0 0 1-.619 1.1q-1.573.877-3.119 1.8a1.112 1.112 0 0 1-1.261 0 93.573 93.573 0 0 0-3.067-1.778 1.164 1.164 0 0 1-.657-1.139c.015-1.333.006-2.667 0-4 .005-.177-.013-.354-.024-.559zm2.215 27.092h4.313v-13.147c-.756.064-1.465.171-2.172.17s-1.4-.111-2.141-.177zm-17.327-6.2a1.33 1.33 0 0 0-1.329-1.368 1.35 1.35 0 0 0-1.392 1.313 1.375 1.375 0 0 0 1.364 1.408 1.354 1.354 0 0 0 1.358-1.354zm0 29.578a1.357 1.357 0 0 0-1.383-1.385 1.375 1.375 0 0 0-1.339 1.377 1.348 1.348 0 0 0 1.361 1.344 1.329 1.329 0 0 0 1.361-1.337zm-4.085-14.807a1.37 1.37 0 0 0-1.357-1.358 1.362 1.362 0 1 0 .01 2.723 1.362 1.362 0 0 0 1.347-1.366zm45.791 14.8a1.384 1.384 0 0 0-1.346-1.374 1.358 1.358 0 0 0-1.376 1.393 1.331 1.331 0 0 0 1.367 1.332 1.346 1.346 0 0 0 1.355-1.353zm0-29.557a1.35 1.35 0 0 0-1.327-1.378 1.334 1.334 0 0 0-1.393 1.3 1.348 1.348 0 0 0 1.348 1.414 1.366 1.366 0 0 0 1.371-1.339zm2.733 16.124a1.362 1.362 0 0 0 .025-2.724 1.362 1.362 0 1 0-.025 2.724z" transform="translate(-2678.697 -4994.014)" style="fill:#fafafb"/>
        <path data-name="Path 38532" d="M2848.348 5227.524a3.657 3.657 0 1 1-3.579-3.728 3.659 3.659 0 0 1 3.579 3.728zm-5.557-.06a1.9 1.9 0 1 0 1.9-1.916 1.888 1.888 0 0 0-1.9 1.916z" transform="translate(-2816.691 -5189.345)" style="fill:#fafafb"/>
    </g>
</svg>
