<svg xmlns="http://www.w3.org/2000/svg" width="56" height="56" viewBox="0 0 56 56">
    <g data-name="Group 25460">
        <path data-name="Path 38600" d="M5206.923 3819.784h7.041c1.036 0 1.316.279 1.317 1.308v2.5c.292.13.565.232.821.368a3.73 3.73 0 1 1-5.4 4.058 3.611 3.611 0 0 1 2.029-4.1.931.931 0 0 0 .688-1.107 11.357 11.357 0 0 1-.007-1.16h-7.203c-.878 0-1.2-.318-1.2-1.194v-8.1h-3.7v9.364a3.824 3.824 0 0 1 2.637 4.621 3.728 3.728 0 0 1-7.274-.292c-.366-1.831.594-3.377 2.7-4.313v-9.389h-3.7v8.111c0 .87-.323 1.188-1.2 1.189h-7.2c0 .6-.025 1.178.021 1.75.011.136.247.3.414.369a3.775 3.775 0 0 1 2.354 3.8 3.731 3.731 0 1 1-5.314-3.689c.209-.1.426-.182.659-.281v-2.631c0-.874.323-1.182 1.206-1.184h7.151v-7.437h-1.791c-.011.147-.032.312-.032.479v3.735c0 1.08-.27 1.355-1.33 1.355-3.442 0-6.884.01-10.325-.012a.712.712 0 0 0-.795.533 3.663 3.663 0 0 1-4.122 2.2 3.727 3.727 0 1 1 4.143-5.1c.068.16.132.322.2.494h10.315v-3.656a7.231 7.231 0 0 1-1.026-.29 2.7 2.7 0 0 1-1.722-2.549c-.027-.912-.006-1.825-.006-2.824-.251 0-.475.008-.7 0a40.3 40.3 0 0 1-5.17-.247 11.169 11.169 0 0 1-.054-21.927 16.763 16.763 0 0 1 2.839-.206.778.778 0 0 0 .77-.441c3.749-6.121 9.23-9.168 16.389-8.881a17.591 17.591 0 0 1 16 12.651l.094.316a30.225 30.225 0 0 1 3.637.318 9.311 9.311 0 0 1-.8 18.31 21.706 21.706 0 0 1-2.442.1c-1.454.016-2.908 0-4.426 0v2.421a2.882 2.882 0 0 1-2.772 3.213v3.674h10.318c1.025-2.2 2.547-3.106 4.464-2.675a3.724 3.724 0 0 1-.055 7.285c-1.887.409-3.408-.513-4.422-2.713h-10.936c-.961 0-1.262-.3-1.265-1.244l-.013-4.2c0-.034-.028-.068-.055-.129h-1.759zm-19.08-23.176a11.423 11.423 0 0 1-.539-2.05c-.077-1.24-.036-2.489-.019-3.734a2.766 2.766 0 0 1 2.783-2.785q10.269-.018 20.534 0a2.775 2.775 0 0 1 2.81 2.82c.014.914-.013 1.829.007 2.743a3.762 3.762 0 0 1-.7 2.826c.991 1.462.99 5.741.065 7.454.208.932.847 1 1.627.976 1.573-.05 3.149 0 4.725-.02a7.466 7.466 0 0 0 3.052-14.223 7.286 7.286 0 0 0-4.889-.508c-.889.212-1.25-.023-1.472-.914-.023-.094-.05-.188-.073-.282a15.745 15.745 0 0 0-14.59-12.044c-6.692-.2-11.69 2.742-14.94 8.612-.42.759-.624.847-1.489.79a12.722 12.722 0 0 0-2.436.006 9.3 9.3 0 0 0-.679 18.321 41.6 41.6 0 0 0 4.7.261c.752.055 1.32-.072 1.588-.848.012-.036.024-.071.034-.107-.958-1.555-.958-5.913-.099-7.294zm12.559-1.1h9.975c.84 0 1.167-.327 1.172-1.162 0-1.109.007-2.217 0-3.326-.006-.766-.343-1.111-1.1-1.111q-10.091-.006-20.183 0c-.766 0-1.105.34-1.111 1.1-.008 1.07 0 2.14 0 3.21 0 1 .29 1.288 1.278 1.289q4.981-.002 9.967-.008zm-.05 7.47h10.032c.835 0 1.16-.331 1.164-1.17 0-1.109.007-2.218 0-3.326-.006-.761-.346-1.1-1.11-1.1q-10.091-.005-20.184 0c-.761 0-1.1.344-1.1 1.11-.008 1.07 0 2.14 0 3.21 0 .99.292 1.28 1.287 1.281zm0 1.868h-10.033c-.839 0-1.161.326-1.165 1.165a263.549 263.549 0 0 0 0 3.327c.006.763.344 1.107 1.106 1.107q10.091.006 20.183 0c.762 0 1.1-.345 1.107-1.107.009-1.07 0-2.14 0-3.21 0-.993-.291-1.283-1.283-1.284zm-22.4 12.172a1.864 1.864 0 1 0-1.882 1.833 1.872 1.872 0 0 0 1.874-1.836zm46.7-1.9a1.864 1.864 0 1 0 1.84 1.873 1.873 1.873 0 0 0-1.852-1.872zm-22.428 10.26a1.864 1.864 0 1 0-1.842 1.872 1.88 1.88 0 0 0 1.83-1.871zm-15.846.011a1.865 1.865 0 1 0 1.846 1.87 1.873 1.873 0 0 0-1.858-1.87zm29.847 1.876a1.864 1.864 0 1 0-1.861 1.853 1.881 1.881 0 0 0 1.849-1.853z" transform="translate(-5172.348 -3774.989)" style="fill:#fafafb"/>
        <path data-name="Path 38601" d="M5292.316 3884.184v-1.363h8.476v1.363z" transform="translate(-5272.511 -3865.875)" style="fill:#fafafb"/>
        <path data-name="Path 38602" d="M5377.6 3884.177h-1.361v-1.38h1.361z" transform="translate(-5344.218 -3865.853)" style="fill:#fafafb"/>
        <path data-name="Path 38603" d="M5401.583 3882.806v1.367h-1.375v-1.367z" transform="translate(-5364.422 -3865.862)" style="fill:#fafafb"/>
        <path data-name="Path 38604" d="M5300.913 3930.786v1.367h-8.46v-1.367z" transform="translate(-5272.628 -3906.301)" style="fill:#fafafb"/>
        <path data-name="Path 38605" d="M5377.691 3930.8v1.363h-1.364v-1.363z" transform="translate(-5344.294 -3906.316)" style="fill:#fafafb"/>
        <path data-name="Path 38606" d="M5400.265 3930.685h1.361v1.38h-1.361z" transform="translate(-5364.473 -3906.215)" style="fill:#fafafb"/>
        <path data-name="Path 38607" d="M5300.809 3978.714v1.364h-8.476v-1.364z" transform="translate(-5272.525 -3946.698)" style="fill:#fafafb"/>
        <path data-name="Path 38608" d="M5377.638 3980.036h-1.37v-1.377h1.37z" transform="translate(-5344.243 -3946.649)" style="fill:#fafafb"/>
        <path data-name="Path 38609" d="M5401.6 3980.036h-1.37v-1.377h1.37z" transform="translate(-5364.443 -3946.649)" style="fill:#fafafb"/>
    </g>
</svg>
