<svg xmlns="http://www.w3.org/2000/svg" width="56" height="56" viewBox="0 0 56 56">
    <g data-name="Group 25456">
        <path data-name="Path 38533" d="M4109.5 4498.9a40.638 40.638 0 0 1 4.742 1.551 14.063 14.063 0 0 1 7.779 14.931 13.8 13.8 0 0 1-11.734 11.719c-5.688.732-10.2-1.432-13.454-6.24a1.188 1.188 0 0 0-1.143-.607q-13.1.022-26.2.01c-1.886 0-2.692-.814-2.692-2.72v-9.62c0-1.758.832-2.61 2.539-2.613h1.875v-2.11h-1.958a2.23 2.23 0 0 1-2.455-2.5q-.007-4.969 0-9.937a2.261 2.261 0 0 1 2.47-2.506h1.941v-2.064h-1.99a2.247 2.247 0 0 1-2.42-2.43q-.013-5.062 0-10.126a2.2 2.2 0 0 1 2.377-2.388h37.928a2.193 2.193 0 0 1 2.388 2.432q.006 5.032 0 10.064a2.232 2.232 0 0 1-2.382 2.455h-2.016v2.067c.263 0 .5.012.744 0 2.76-.156 3.816.387 3.674 3.759-.094 2.328-.013 4.673-.013 6.873zm-21.36-14.08h18.805c1 0 1.234-.234 1.235-1.271v-9.746c0-.975-.258-1.23-1.227-1.23h-37.61c-.95 0-1.2.265-1.2 1.252v9.682c0 1.095.219 1.313 1.316 1.313zm20.027 14.18v-8.153c0-.977-.252-1.227-1.217-1.227h-37.608c-.95 0-1.2.259-1.2 1.241v9.746c0 1 .265 1.27 1.251 1.27q15.111 0 30.222-.012a1.711 1.711 0 0 0 .9-.3 13.485 13.485 0 0 1 4.8-2.13c.908-.188 1.833-.281 2.852-.435zm-12.1 7.695c-.248-.015-.427-.036-.607-.036h-26.127c-.958 0-1.2.254-1.2 1.248v9.619c0 1.164.2 1.372 1.324 1.372h26.277a14.577 14.577 0 0 1 .338-12.198zm5.675.771c1.307 3.978 2.6 7.92 3.957 12.042.638-2.11 1.224-4.018 1.782-5.934a1.31 1.31 0 0 0-.065-.728c-.443-1.313-.924-2.615-1.362-3.931-.128-.385-.273-.612-.725-.558a.624.624 0 0 1-.762-.636c-.012-.536.365-.7.838-.7h5.958c.441 0 .813.138.837.639s-.307.7-.763.721c-.047 0-.092.056-.161.1l2.532 8.508c.5-1.355.823-2.721 1.276-4.041a2.89 2.89 0 0 0-.262-2.942 3.429 3.429 0 0 1-.572-1.388 7.107 7.107 0 0 1-.19-2.235 3.28 3.28 0 0 1 2.451-2.784c-5.886-5.47-15.084-3.311-18.373 2.449h.7c1.055 0 2.111-.023 3.164.026a.869.869 0 0 1 .63.458.915.915 0 0 1-.221.706c-.102.134-.369.137-.664.23zm11.331 17.493c.541-.279 1.061-.349 1.259-1.01 1.288-4.287 2.626-8.557 3.928-12.84a12.516 12.516 0 0 0 .665-4.412 2.281 2.281 0 0 0-1.362-1.782 1.776 1.776 0 0 0-1.988 1.052 1.907 1.907 0 0 0-.24 1.021 5.114 5.114 0 0 0 .589 2.153 4.2 4.2 0 0 1 .3 4.528.97.97 0 0 0-.031.122c-.531 1.881-1.067 3.761-1.589 5.645-.113.408-.239.8-.732.8s-.622-.412-.733-.81c-.011-.04-.026-.08-.038-.12l-1.9-6.408c-.448-1.506-.9-3.01-1.352-4.5h-2.595zm-40.487-36.748h31.124v-1.985h-31.124zm25.914 14.989h-25.237c-.124 0-.271-.041-.367.013-.133.075-.315.215-.322.337-.034.562-.015 1.126-.015 1.711a4.18 4.18 0 0 0 .424.048h23.507a.7.7 0 0 0 .489-.163c.507-.606.977-1.236 1.521-1.946zm5.285 21.9.2-.107a6.731 6.731 0 0 1 .312-.953 5.574 5.574 0 0 0 0-4.642c-1.354-3.774-2.533-7.613-3.8-11.421-.075-.225-.271-.557-.436-.573a20.2 20.2 0 0 0-2.028-.028c.054.234.08.4.127.548q2.561 8.248 5.137 16.492a2.786 2.786 0 0 0 .493.689zm4.526-9.661-3.049 10.025a11.459 11.459 0 0 0 6.522-.128zm-6.573 8.443-4.843-15.563a12.647 12.647 0 0 0 4.849 15.568zm14.164-.554a12.958 12.958 0 0 0 4.86-8.5c.29-2-.071-5-.572-5.566-1.39 4.593-2.811 9.247-4.283 14.071z" transform="translate(-4066.797 -4471.241)" style="fill:#28dea7"/>
        <path data-name="Path 38534" d="M4351.962 4617.9c.2.061.283.082.36.108a12.5 12.5 0 0 1 7.641 6.358c.063.127.188.276.162.387-.065.283-.128.66-.328.789-.156.1-.58-.041-.768-.207a2.888 2.888 0 0 1-.438-.8 11.2 11.2 0 0 0-6.173-5.119 1.931 1.931 0 0 1-.722-.3.922.922 0 0 1-.243-.728c.052-.205.36-.351.509-.488z" transform="translate(-4304.129 -4592.978)" style="fill:#28dea7"/>
        <path data-name="Path 38535" d="M4335.316 4615.856a2.056 2.056 0 0 1-.8-.15.918.918 0 0 1-.41-.692c.032-.209.359-.458.6-.528a2.107 2.107 0 0 1 .84.088.614.614 0 0 1 .592.713c-.048.442-.367.6-.822.569z" transform="translate(-4289.758 -4590.228)" style="fill:#28dea7"/>
        <path data-name="Path 38536" d="M4252.663 4501.293a3.979 3.979 0 1 1 3.985-3.947 3.976 3.976 0 0 1-3.985 3.947zm-2.653-4.043a2.661 2.661 0 1 0 2.687-2.6 2.675 2.675 0 0 0-2.687 2.6z" transform="translate(-4218.461 -4489.718)" style="fill:#28dea7"/>
        <path data-name="Path 38537" d="M4115.713 4521.834a2.322 2.322 0 0 1-.256.5q-.543.582-1.123 1.129c-.3.282-.689.316-.9-.021a.946.946 0 0 1 0-.858 6.173 6.173 0 0 1 1.16-1.169.791.791 0 0 1 .665-.082c.183.073.303.326.454.501z" transform="translate(-4105.71 -4513.103)" style="fill:#28dea7"/>
        <path data-name="Path 38538" d="M4159.049 4523.765c-.142-.1-.39-.2-.462-.366a.782.782 0 0 1 .016-.667 8.391 8.391 0 0 1 1.287-1.283.777.777 0 0 1 .749.044.765.765 0 0 1 .159.726 15.64 15.64 0 0 1-1.392 1.432c-.064.062-.187.062-.357.114z" transform="translate(-4143.303 -4513.166)" style="fill:#28dea7"/>
        <path data-name="Path 38539" d="M4206.141 4521.817a2.657 2.657 0 0 1-.286.537c-.343.372-.705.728-1.071 1.078a.648.648 0 1 1-.913-.918 13.081 13.081 0 0 1 1.13-1.1.794.794 0 0 1 .66-.091c.191.065.316.313.48.494z" transform="translate(-4180.93 -4513.092)" style="fill:#28dea7"/>
        <path data-name="Path 38540" d="M4090.6 4523.615a.624.624 0 0 1-.552-.958 9.156 9.156 0 0 1 1.377-1.365.761.761 0 0 1 .7.086c.147.11.27.528.188.624-.483.562-1.029 1.069-1.559 1.589-.04.034-.123.019-.154.024z" transform="translate(-4086.142 -4513.053)" style="fill:#28dea7"/>
        <path data-name="Path 38541" d="M4137.9 4521.936a3.025 3.025 0 0 1-.308.539c-.333.359-.683.7-1.037 1.041a.608.608 0 0 1-.925.038.621.621 0 0 1 .025-.97 11.05 11.05 0 0 1 1.1-1.066.877.877 0 0 1 .713-.1c.177.061.287.335.432.518z" transform="translate(-4124.024 -4513.175)" style="fill:#28dea7"/>
        <path data-name="Path 38542" d="M4159.035 4497.967c-.122-.1-.377-.213-.451-.4a.777.777 0 0 1 .069-.664 6.962 6.962 0 0 1 1.213-1.2.911.911 0 0 1 .811.027.707.707 0 0 1 .153.677 18.96 18.96 0 0 1-1.443 1.477c-.049.051-.155.041-.352.083z" transform="translate(-4143.319 -4491.631)" style="fill:#28dea7"/>
        <path data-name="Path 38543" d="M4090.786 4497.96c-.135-.108-.392-.219-.467-.4a.778.778 0 0 1 .067-.666 6.977 6.977 0 0 1 1.211-1.2.869.869 0 0 1 .807.025.746.746 0 0 1 .133.728 14.6 14.6 0 0 1-1.356 1.4c-.064.053-.189.053-.395.113z" transform="translate(-4086.431 -4491.615)" style="fill:#28dea7"/>
        <path data-name="Path 38544" d="M4136.257 4497.826c-.121-.086-.374-.175-.443-.341a.788.788 0 0 1 .021-.673 8.258 8.258 0 0 1 1.293-1.286.81.81 0 0 1 .757.075.713.713 0 0 1 .146.685 18.774 18.774 0 0 1-1.442 1.47c-.047.044-.153.035-.332.07z" transform="translate(-4124.31 -4491.496)" style="fill:#28dea7"/>
        <path data-name="Path 38545" d="M4204.512 4497.961c-.136-.106-.4-.213-.473-.4a.779.779 0 0 1 .061-.668 6.954 6.954 0 0 1 1.209-1.2.871.871 0 0 1 .807.018.747.747 0 0 1 .142.727 14.578 14.578 0 0 1-1.353 1.4c-.064.062-.189.062-.393.123z" transform="translate(-4181.229 -4491.616)" style="fill:#28dea7"/>
        <path data-name="Path 38546" d="M4113.516 4497.86c-.122-.1-.381-.206-.456-.389a.784.784 0 0 1 .068-.669 7.47 7.47 0 0 1 1.21-1.2.8.8 0 0 1 .76-.015c.167.124.3.6.207.719a17.238 17.238 0 0 1-1.437 1.479c-.048.046-.154.034-.352.075z" transform="translate(-4105.449 -4491.526)" style="fill:#28dea7"/>
        <path data-name="Path 38547" d="M4180.587 4522.706a2.279 2.279 0 0 1 .25-.5c.361-.388.735-.765 1.122-1.127.3-.279.688-.316.9.024a.952.952 0 0 1 0 .86 6.153 6.153 0 0 1-1.159 1.166.787.787 0 0 1-.665.083c-.186-.075-.302-.332-.448-.506z" transform="translate(-4161.708 -4512.731)" style="fill:#28dea7"/>
        <path data-name="Path 38548" d="M4182.907 4495.154c.555 0 .907.55.6.947a8.5 8.5 0 0 1-1.387 1.359.621.621 0 0 1-.84-.805 16.591 16.591 0 0 1 1.392-1.438c.058-.06.187-.051.235-.063z" transform="translate(-4162.247 -4491.239)" style="fill:#28dea7"/>
        <path data-name="Path 38549" d="M4252.636 4594.166a3.981 3.981 0 1 1 .033 7.962 3.981 3.981 0 0 1-.033-7.962zm-2.629 3.94a2.662 2.662 0 1 0 2.665-2.628 2.64 2.64 0 0 0-2.665 2.628z" transform="translate(-4218.459 -4573.27)" style="fill:#28dea7"/>
        <path data-name="Path 38550" d="M4206.123 4622.668a2.54 2.54 0 0 1-.28.518 20.87 20.87 0 0 1-1.081 1.085.616.616 0 0 1-.929.017.608.608 0 0 1 .014-.927 10.52 10.52 0 0 1 1.139-1.109.912.912 0 0 1 .724-.084c.167.05.269.314.413.5z" transform="translate(-4180.923 -4596.582)" style="fill:#28dea7"/>
        <path data-name="Path 38551" d="M4183.959 4596.675a2.51 2.51 0 0 1-.27.5 7.716 7.716 0 0 1-1.139 1.1.617.617 0 0 1-.883-.856 6.53 6.53 0 0 1 1.2-1.211.768.768 0 0 1 .664-.052c.184.078.288.337.428.519z" transform="translate(-4162.536 -4574.964)" style="fill:#28dea7"/>
        <path data-name="Path 38552" d="M4158.838 4598.467c-.5-.021-.857-.559-.58-.915a9.266 9.266 0 0 1 1.406-1.412.76.76 0 0 1 .695.1c.146.114.266.527.182.626-.467.551-1 1.048-1.513 1.555-.049.047-.153.038-.19.046z" transform="translate(-4143.003 -4574.951)" style="fill:#28dea7"/>
        <path data-name="Path 38553" d="M4204.482 4598.6c-.137-.117-.392-.235-.464-.424a.784.784 0 0 1 .082-.665 7.591 7.591 0 0 1 1.2-1.2.8.8 0 0 1 .752-.022c.168.119.315.589.222.7a18.722 18.722 0 0 1-1.465 1.515c-.048.055-.149.051-.327.096z" transform="translate(-4181.219 -4575.049)" style="fill:#28dea7"/>
        <path data-name="Path 38554" d="M4114.752 4595.63c.125.091.373.181.448.349a.775.775 0 0 1-.006.665 9.562 9.562 0 0 1-1.333 1.319.73.73 0 0 1-.7-.058c-.155-.129-.279-.563-.188-.672.463-.55 1-1.039 1.514-1.543.038-.037.113-.029.265-.06z" transform="translate(-4105.389 -4574.569)" style="fill:#28dea7"/>
        <path data-name="Path 38555" d="M4136.27 4598.515c-.123-.093-.373-.189-.442-.359a.789.789 0 0 1 .03-.671 9.035 9.035 0 0 1 1.3-1.288.737.737 0 0 1 .7.04c.158.127.29.567.2.673-.467.553-1.006 1.045-1.525 1.553-.033.037-.112.025-.263.052z" transform="translate(-4124.325 -4574.98)" style="fill:#28dea7"/>
        <path data-name="Path 38556" d="M4092.415 4596.616a2.676 2.676 0 0 1-.288.536c-.344.373-.706.729-1.072 1.08a.649.649 0 1 1-.919-.912 13.044 13.044 0 0 1 1.131-1.1.8.8 0 0 1 .66-.1c.192.064.32.313.488.496z" transform="translate(-4086.12 -4574.947)" style="fill:#28dea7"/>
        <path data-name="Path 38557" d="M4092.41 4622.635a3.621 3.621 0 0 1-.344.567c-.314.344-.65.667-.984.993a.638.638 0 0 1-.97.063.615.615 0 0 1 .032-.963 11.254 11.254 0 0 1 1.087-1.059.9.9 0 0 1 .714-.122c.183.055.302.327.465.521z" transform="translate(-4086.112 -4596.546)" style="fill:#28dea7"/>
        <path data-name="Path 38558" d="M4114.585 4621.812c.518-.021.93.5.654.859a9.51 9.51 0 0 1-1.509 1.482c-.106.088-.5-.019-.637-.159s-.223-.531-.128-.645c.437-.529.941-1 1.43-1.488.048-.048.153-.041.19-.049z" transform="translate(-4105.374 -4596.318)" style="fill:#28dea7"/>
        <path data-name="Path 38559" d="M4159.026 4624.539c-.13-.11-.382-.228-.455-.415a.778.778 0 0 1 .075-.66 7.572 7.572 0 0 1 1.2-1.2.8.8 0 0 1 .752-.025c.17.12.323.592.231.7a18.692 18.692 0 0 1-1.471 1.507c-.046.054-.15.049-.332.093z" transform="translate(-4143.312 -4596.607)" style="fill:#28dea7"/>
        <path data-name="Path 38560" d="M4135.042 4623.462a2.67 2.67 0 0 1 .276-.491 21.63 21.63 0 0 1 1.08-1.083.647.647 0 1 1 .914.917 10.319 10.319 0 0 1-1.138 1.107.874.874 0 0 1-.722.082c-.178-.064-.276-.346-.41-.532z" transform="translate(-4123.719 -4596.2)" style="fill:#28dea7"/>
        <path data-name="Path 38561" d="M4183.409 4622.65a2.292 2.292 0 0 1-.26.536c-.343.376-.708.733-1.077 1.084a.646.646 0 1 1-.93-.9 9.682 9.682 0 0 1 1.133-1.109.926.926 0 0 1 .722-.093c.166.048.272.308.412.482z" transform="translate(-4161.996 -4596.589)" style="fill:#28dea7"/>
        <path data-name="Path 38562" d="M4092.391 4697.486a3.973 3.973 0 0 1-.356.57c-.3.331-.628.642-.948.957s-.683.406-1.021.063c-.322-.327-.218-.667.082-.967a11.23 11.23 0 0 1 1.053-1.022.919.919 0 0 1 .722-.124c.184.054.304.328.468.523z" transform="translate(-4086.091 -4658.722)" style="fill:#28dea7"/>
        <path data-name="Path 38563" d="M4115.707 4723.446a2.6 2.6 0 0 1-.284.521c-.346.374-.708.736-1.081 1.083-.3.275-.687.326-.905-.013a.944.944 0 0 1-.009-.857 5.787 5.787 0 0 1 1.16-1.167.9.9 0 0 1 .721-.068c.165.055.261.316.398.501z" transform="translate(-4105.711 -4680.291)" style="fill:#28dea7"/>
        <path data-name="Path 38564" d="M4160.655 4723.43a3.124 3.124 0 0 1-.321.556c-.328.358-.679.7-1.028 1.035a.649.649 0 1 1-.922-.91 10.448 10.448 0 0 1 1.131-1.1.9.9 0 0 1 .717-.075c.168.05.273.307.423.494z" transform="translate(-4142.994 -4680.288)" style="fill:#28dea7"/>
        <path data-name="Path 38565" d="M4206.136 4723.436a3.171 3.171 0 0 1-.314.526c-.331.356-.68.7-1.029 1.034a.618.618 0 0 1-.964.029.606.606 0 0 1 .024-.92 10.87 10.87 0 0 1 1.129-1.1.87.87 0 0 1 .713-.087c.183.062.294.332.441.518z" transform="translate(-4180.926 -4680.272)" style="fill:#28dea7"/>
        <path data-name="Path 38566" d="M4160.268 4696.634c.588.024.9.564.582.968a7.348 7.348 0 0 1-1.293 1.29.848.848 0 0 1-.8-.085.749.749 0 0 1-.079-.74 11.837 11.837 0 0 1 1.274-1.312.757.757 0 0 1 .316-.121z" transform="translate(-4143.38 -4658.473)" style="fill:#28dea7"/>
        <path data-name="Path 38567" d="M4092.964 4723.421a2.494 2.494 0 0 1-.267.49c-.36.384-.731.76-1.115 1.12-.294.276-.68.321-.9-.015a.937.937 0 0 1-.024-.85 5.829 5.829 0 0 1 1.15-1.161.871.871 0 0 1 .713-.091c.185.062.299.33.443.507z" transform="translate(-4086.677 -4680.272)" style="fill:#28dea7"/>
        <path data-name="Path 38568" d="M4134.978 4724.234a3.443 3.443 0 0 1 .322-.526c.318-.344.656-.671.989-1a.655.655 0 1 1 .942.9 10.058 10.058 0 0 1-1.095 1.065.886.886 0 0 1-.719.094c-.18-.067-.289-.34-.439-.533z" transform="translate(-4123.666 -4679.904)" style="fill:#28dea7"/>
        <path data-name="Path 38569" d="M4114.829 4696.431c.129.088.4.173.456.334a.882.882 0 0 1-.037.723 6.523 6.523 0 0 1-1.206 1.2.86.86 0 0 1-.8-.02.75.75 0 0 1-.144-.731 14.406 14.406 0 0 1 1.355-1.4c.06-.057.186-.054.376-.106z" transform="translate(-4105.476 -4658.304)" style="fill:#28dea7"/>
        <path data-name="Path 38570" d="M4135.106 4698.89a1.97 1.97 0 0 1 .219-.462 8.393 8.393 0 0 1 1.175-1.149.942.942 0 0 1 .858 0c.331.216.29.61.016.906a10.077 10.077 0 0 1-1.134 1.108.886.886 0 0 1-.721.1c-.179-.06-.285-.336-.413-.503z" transform="translate(-4123.772 -4658.926)" style="fill:#28dea7"/>
        <path data-name="Path 38571" d="M4205.627 4696.634a.618.618 0 0 1 .542.972 7.945 7.945 0 0 1-1.3 1.287.813.813 0 0 1-.759-.043.72.72 0 0 1-.175-.679 18.06 18.06 0 0 1 1.438-1.482c.065-.06.198-.044.254-.055z" transform="translate(-4181.156 -4658.473)" style="fill:#28dea7"/>
        <path data-name="Path 38572" d="M4183.427 4697.441a2.588 2.588 0 0 1-.283.549c-.344.375-.7.736-1.077 1.081a.613.613 0 0 1-.926.007.619.619 0 0 1 .017-.928 9.758 9.758 0 0 1 1.088-1.067.931.931 0 0 1 .719-.138c.182.048.306.317.462.496z" transform="translate(-4162.001 -4658.712)" style="fill:#28dea7"/>
        <path data-name="Path 38573" d="M4180.619 4724.276a2.393 2.393 0 0 1 .268-.533c.344-.375.708-.733 1.077-1.085a.6.6 0 0 1 .923-.025.618.618 0 0 1 0 .93 9.652 9.652 0 0 1-1.136 1.108.919.919 0 0 1-.72.087c-.166-.048-.271-.306-.412-.482z" transform="translate(-4161.734 -4679.901)" style="fill:#28dea7"/>
    </g>
</svg>
