<svg xmlns="http://www.w3.org/2000/svg" xmlns:xlink="http://www.w3.org/1999/xlink" width="64" height="64" viewBox="0 0 64 64">
  <defs>
    <clipPath id="clip-path">
      <rect width="64" height="64" fill="none"/>
    </clipPath>
    <filter id="Ellipse_1220" x="0" y="0" width="64" height="64" filterUnits="userSpaceOnUse">
      <feOffset dy="3" input="SourceAlpha"/>
      <feGaussianBlur stdDeviation="3" result="blur"/>
      <feFlood flood-color="#161429" flood-opacity="0.102"/>
      <feComposite operator="in" in2="blur"/>
      <feComposite in="SourceGraphic"/>
    </filter>
  </defs>
  <g id="Group_26429" data-name="Group 26429" transform="translate(-1420 -22)">
    <g id="Repeat_Grid_1" data-name="Repeat Grid 1" transform="translate(1420 22)" clip-path="url(#clip-path)">
      <g transform="translate(-1420 -22)">
        <g transform="matrix(1, 0, 0, 1, 1420, 22)" filter="url(#Ellipse_1220)">
          <circle id="Ellipse_1220-2" data-name="Ellipse 1220" cx="23" cy="23" r="23" transform="translate(9 6)" fill="#fafafb"/>
        </g>
      </g>
    </g>
    <path id="Path_38157" data-name="Path 38157" d="M1407.816-85.6c.73.729,1.778,1.752,2.306,2.289a1.175,1.175,0,0,1,.032,1.7,1.174,1.174,0,0,1-1.7-.031c-1.186-1.178-2.219-2.217-2.294-2.3a8.65,8.65,0,0,1-7.389,1.535,8.4,8.4,0,0,1-5.047-3.443,8.735,8.735,0,0,1,1.212-11.468,8.763,8.763,0,0,1,11.51-.3A8.772,8.772,0,0,1,1407.816-85.6Zm-6.972,1.079a6.354,6.354,0,0,0,6.385-6.343,6.353,6.353,0,0,0-6.357-6.4,6.352,6.352,0,0,0-6.385,6.344A6.349,6.349,0,0,0,1400.844-84.524Z" transform="translate(50.878 141.629)" fill="rgba(22,20,41,0.8)"/>
  </g>
</svg>
