<svg xmlns="http://www.w3.org/2000/svg" width="50" height="50" viewBox="0 0 50 50">
    <g data-name="Group 25714">
        <g data-name="Group 25710" transform="translate(-1495 -8859)">
            <rect data-name="Rectangle 7039" width="50" height="50" rx="25" transform="translate(1495 8859)" style="fill:#161429"/>
        </g>
        <g data-name="Group 25713">
            <path data-name="Path 38881" d="M-1151.224 1550.121c-.518.383-1.047.754-1.552 1.154a.862.862 0 0 1-1.093.065c-2.28-1.34-4.328-2.527-6.616-3.853a.958.958 0 0 1-.485-.894.885.885 0 0 1 .675-.71c6.249-2.039 11.791-3.853 18.038-5.9a1.039 1.039 0 0 1 1.006.145 1.2 1.2 0 0 1 .228 1.116c-2.042 6.234-3.87 11.82-5.905 18.056-.105.324-.293.661-.665.71a1.028 1.028 0 0 1-.934-.57c-1.32-2.277-2.5-4.315-3.835-6.584a.882.882 0 0 1 .064-1.128c.4-.5.764-1.019 1.144-1.531z" transform="translate(1175.975 -1524.92)" style="fill:#fafafb"/>
            <path data-name="Path 38882" d="M-1152.778 1560.439a.871.871 0 0 1-.213.681q-2.555 2.581-5.132 5.139a.786.786 0 0 1-1.149.058.79.79 0 0 1 .053-1.183q2.562-2.574 5.133-5.138a.713.713 0 0 1 .9-.2.742.742 0 0 1 .408.643z" transform="translate(1175.668 -1533.057)" style="fill:#fafafb"/>
            <path data-name="Path 38883" d="M-1156.631 1558.13a.911.911 0 0 1-.249.639 82.316 82.316 0 0 1-1.957 1.963.792.792 0 0 1-1.151.063.79.79 0 0 1 .044-1.183c.657-.672 1.3-1.357 2.007-1.978a1.051 1.051 0 0 1 .855-.169.614.614 0 0 1 .451.665z" transform="translate(1175.819 -1531.286)" style="fill:#fafafb"/>
            <path data-name="Path 38884" d="M-1149.549 1565.189a1 1 0 0 1-.2.638 89.293 89.293 0 0 1-1.989 2 .783.783 0 0 1-1.15.051.781.781 0 0 1 .023-1.149c.667-.686 1.346-1.358 2.027-2.028a.672.672 0 0 1 .869-.162.942.942 0 0 1 .42.65z" transform="translate(1173.121 -1534.051)" style="fill:#fafafb"/>
        </g>
    </g>
</svg>
