<svg xmlns="http://www.w3.org/2000/svg" width="29.011" height="29" viewBox="0 0 29.011 29">
    <g data-name="Group 25682">
        <path data-name="Path 38868" d="M-823.429 934.973c-.492-.082-.988-.147-1.477-.248a15.5 15.5 0 0 1-3.718-1.368 29.4 29.4 0 0 1-11.423-10.057 22.9 22.9 0 0 1-2.976-6.069 7.827 7.827 0 0 1-.362-3.889 3.176 3.176 0 0 1 .844-1.643c.768-.785 1.541-1.567 2.335-2.327a2.028 2.028 0 0 1 3.094.009c1.154 1.123 2.284 2.271 3.415 3.417a2.124 2.124 0 0 1 .718 1.859 2.473 2.473 0 0 1-.79 1.378c-.642.644-1.289 1.283-1.933 1.926-.334.333-.341.421-.15.848a16.189 16.189 0 0 0 3.058 4.313 19.883 19.883 0 0 0 4.02 3.407c.511.321 1.062.579 1.6.866a.467.467 0 0 0 .605-.144c.661-.666 1.319-1.334 1.989-1.991a3.711 3.711 0 0 1 .66-.531 1.906 1.906 0 0 1 2.293.176c.139.114.275.233.4.36 1.074 1.07 2.154 2.133 3.212 3.218a3.367 3.367 0 0 1 .657.913 1.763 1.763 0 0 1-.314 2.012 58.644 58.644 0 0 1-2.625 2.677 3.287 3.287 0 0 1-1.806.829c-.083.014-.163.039-.245.06z" transform="translate(843.497 -905.973)" style="fill:#fafafb"/>
        <path data-name="Path 38869" d="m-798.639 915.973-2.159.389a13.737 13.737 0 0 0-4.009-7.591 13.739 13.739 0 0 0-7.736-3.8l.3-2.163a15.646 15.646 0 0 1 3.9 1.05 15.941 15.941 0 0 1 5.994 4.325 15.853 15.853 0 0 1 3.376 6.33c.122.447.224.9.335 1.35z" transform="translate(827.65 -902.808)" style="fill:#fafafb"/>
        <path data-name="Path 38870" d="M-812.87 915.08a9.635 9.635 0 0 1 8.185 7.92l-2.145.37a7.452 7.452 0 0 0-2.17-4.105 7.467 7.467 0 0 0-4.166-2.042z" transform="translate(827.726 -909.192)" style="fill:#fafafb"/>
    </g>
</svg>
