<svg xmlns="http://www.w3.org/2000/svg" width="15.108" height="12.277" viewBox="0 0 15.108 12.277">
  <path id="twiter" d="M239.025,242.979a8.815,8.815,0,0,0,13.561-7.828,6.278,6.278,0,0,0,1.547-1.6,6.211,6.211,0,0,1-1.78.488,3.106,3.106,0,0,0,1.362-1.715,6.212,6.212,0,0,1-1.968.753,3.1,3.1,0,0,0-5.282,2.827,8.794,8.794,0,0,1-6.389-3.239,3.1,3.1,0,0,0,.959,4.139,3.1,3.1,0,0,1-1.4-.388,3.1,3.1,0,0,0,2.487,3.079,3.118,3.118,0,0,1-1.4.053,3.1,3.1,0,0,0,2.895,2.152A6.228,6.228,0,0,1,239.025,242.979Z" transform="translate(-239.025 -232.094)" fill="#fafafb"/>
</svg>
