<svg xmlns="http://www.w3.org/2000/svg" width="64" height="64" viewBox="0 0 64 64">
    <g data-name="Group 26433" transform="translate(-778 -4183)">
        <circle data-name="Ellipse 1879" cx="32" cy="32" r="32" transform="translate(778 4183)" style="opacity:.1;fill:#28dea7"/>
        <path data-name="Path 38622" d="M5925.417 1527.341a6.273 6.273 0 0 1 1.917-4.59c5.412-5.35 10.773-10.751 16.16-16.126a5.628 5.628 0 0 1 6.955-.986 6.106 6.106 0 0 1 2.726 6.822 5.708 5.708 0 0 1-1.294 2.194q-7.453 7.554-14.994 15.022a3.522 3.522 0 1 1-4.975-4.983q4.654-4.683 9.335-9.337a1.008 1.008 0 1 1 1.4 1.394q-4.556 4.563-9.118 9.119a4.953 4.953 0 0 0-.425.447 1.539 1.539 0 0 0 2.14 2.175 4.6 4.6 0 0 0 .45-.421c4.858-4.856 9.682-9.748 14.593-14.551a3.989 3.989 0 0 0-.136-5.627 3.663 3.663 0 0 0-5.3.158c-5.3 5.29-10.559 10.617-15.907 15.855a4.832 4.832 0 0 0-1.464 4.348 6.773 6.773 0 0 0 7.779 5.749 3.561 3.561 0 0 0 1.986-1.026q5.64-5.661 11.3-11.3c.116-.116.23-.235.35-.348a.995.995 0 1 1 1.411 1.374q-5.994 6-12 11.992a5.312 5.312 0 0 1-3.306 1.352 8.938 8.938 0 0 1-8.949-5.457 8.807 8.807 0 0 1-.421-1.477c-.111-.584-.146-1.181-.213-1.772z" transform="translate(-5128.916 2694.646)" style="stroke:#28dea7;stroke-width:.5px;fill:#28dea7"/>
    </g>
</svg>
