<svg xmlns="http://www.w3.org/2000/svg" width="64" height="64" viewBox="0 0 64 64">
    <g data-name="Group 26432" transform="translate(-478 -4183)">
        <circle data-name="Ellipse 1878" cx="32" cy="32" r="32" transform="translate(478 4183)" style="opacity:.1;fill:#28dea7"/>
        <g data-name="Group 25483">
            <path data-name="Path 38611" d="M5807.888 1149.8a14.375 14.375 0 0 1-2.23-28.57 13.606 13.606 0 0 1 5.544.224c.789.2 1.193.715 1.057 1.348-.144.673-.747.979-1.569.8a12.153 12.153 0 1 0 9.175 13.314 20.849 20.849 0 0 0-.2-4.308c-.083-.843.122-1.429.787-1.587s1.174.264 1.378 1.1a14.343 14.343 0 0 1-12.224 17.528c-.574.068-1.147.104-1.718.151z" transform="translate(-5297.553 3079.951)" style="fill:#28dea7"/>
            <path data-name="Path 38612" d="M5860.89 1150.33a5.167 5.167 0 0 1 .469-.666q5.432-5.445 10.871-10.879c.124-.123.24-.253.374-.365a1.042 1.042 0 0 1 1.46 1.487c-.113.132-.243.249-.365.372q-5.988 5.992-11.98 11.983a1.1 1.1 0 0 1-1.838-.009l-4-4.012c-.631-.632-.712-1.217-.248-1.7.479-.5 1.092-.418 1.747.24 1.114 1.124 2.22 2.252 3.51 3.549z" transform="translate(-5349.701 3064.992)" style="fill:#28dea7"/>
        </g>
    </g>
</svg>
