<svg xmlns="http://www.w3.org/2000/svg" width="64" height="64" viewBox="0 0 64 64">
    <g data-name="Group 26434" transform="translate(-1078 -4183)">
        <circle data-name="Ellipse 1880" cx="32" cy="32" r="32" transform="translate(1078 4183)" style="opacity:.1;fill:#28dea7"/>
        <g data-name="Group 25485">
            <path data-name="Path 38614" d="M5961.137 653.38v-23.26h-7.093c-.839 0-1.321-.383-1.333-1.039-.013-.68.48-1.075 1.359-1.076h6.938a2.12 2.12 0 0 1 2.278 2.261v22.982a2.112 2.112 0 0 1-2.224 2.249q-3.535.012-7.068 0c-.81 0-1.3-.43-1.283-1.09.02-.639.488-1.023 1.279-1.025h6.408z" transform="translate(-4839.786 3573)" style="stroke:#28dea7;stroke-width:.1px;fill:#28dea7"/>
            <path data-name="Path 38615" d="m5927.606 649.535-4.9-4.89c-.141-.14-.291-.272-.418-.423a1.056 1.056 0 0 1 1.47-1.514 4.1 4.1 0 0 1 .332.321l6.687 6.676a1.082 1.082 0 0 1 .009 1.768c-2.259 2.257-4.511 4.523-6.792 6.757a1.592 1.592 0 0 1-1.076.47 1.132 1.132 0 0 1-.818-.692 1.492 1.492 0 0 1 .335-1.159c1.473-1.547 3-3.04 4.517-4.547.172-.17.375-.309.563-.461l-.065-.189h-16.86a5.818 5.818 0 0 1-.594-.008 1.052 1.052 0 0 1-.013-2.1 5.59 5.59 0 0 1 .594-.009h17.028z" transform="translate(-4813.006 3564.156)" style="stroke:#28dea7;stroke-width:.1px;fill:#28dea7"/>
        </g>
    </g>
</svg>
