<svg xmlns="http://www.w3.org/2000/svg" width="64" height="64" viewBox="0 0 64 64">
    <g data-name="Group 26435" transform="translate(-1378 -4183)">
        <circle data-name="Ellipse 1881" cx="32" cy="32" r="32" transform="translate(1378 4183)" style="opacity:.1;fill:#28dea7"/>
        <g data-name="Group 25486">
            <path data-name="Path 38616" d="M5374.379 1749.071v-3.771c0-1.134-.011-2.268 0-3.4a1.048 1.048 0 0 1 1.066-1.149 1.062 1.062 0 0 1 1.025 1.128v7a2.114 2.114 0 0 1-2.3 2.335q-14.455.007-28.911 0a2.1 2.1 0 0 1-2.284-2.281q-.01-9.222 0-18.445a2.111 2.111 0 0 1 2.333-2.3q5.495-.009 10.988 0c.839 0 1.312.37 1.328 1.021.017.672-.476 1.072-1.342 1.073h-11.163v4.184h10.962a3.346 3.346 0 0 1 .652.02 1.039 1.039 0 0 1 .024 2.05 3.093 3.093 0 0 1-.652.024h-11.002v12.511z" transform="translate(-3949.977 2478.022)" style="fill:#28dea7"/>
            <path data-name="Path 38617" d="M5439.692 1705.8a16.832 16.832 0 0 1-.791 6.165 12.536 12.536 0 0 1-4.966 5.984 16.644 16.644 0 0 1-1.995 1.24 1.371 1.371 0 0 1-1.091.076 15.66 15.66 0 0 1-6.386-5.726 12.272 12.272 0 0 1-1.5-5.823c-.053-1.611-.008-3.225-.026-4.838a1.23 1.23 0 0 1 .835-1.26c2.323-.987 4.633-2 6.968-2.963a1.7 1.7 0 0 1 1.175.009c2.314.951 4.6 1.965 6.909 2.937a1.286 1.286 0 0 1 .873 1.368c-.026.822-.005 1.651-.005 2.831zm-1.981.151-.115-.012c0-.7-.019-1.4.009-2.093a.6.6 0 0 0-.437-.676c-1.828-.761-3.64-1.563-5.47-2.321a1.133 1.133 0 0 0-.788.009c-1.83.759-3.642 1.559-5.469 2.323a.569.569 0 0 0-.408.629c.02 1.112.02 2.224.008 3.336a9.959 9.959 0 0 0 4.636 8.922c2.037 1.358 1.248 1.374 3.308-.021a9.28 9.28 0 0 0 4.269-5.95c.26-1.366.31-2.767.456-4.15z" transform="translate(-4013.194 2501.45)" style="fill:#28dea7"/>
            <path data-name="Path 38618" d="M5366.118 1790.251c-.651 0-1.3.011-1.955 0a1.05 1.05 0 1 1 .012-2.089q1.956-.018 3.91 0a1.062 1.062 0 0 1 1.191 1.018c.017.634-.452 1.06-1.2 1.072-.655.008-1.306-.001-1.958-.001z" transform="translate(-3965.811 2430.611)" style="fill:#28dea7"/>
            <path data-name="Path 38619" d="M5446.192 1732.707c1.088-1.36 2.125-2.648 3.154-3.943a1.111 1.111 0 0 1 1.239-.51 1.056 1.056 0 0 1 .421 1.787c-1.23 1.555-2.476 3.1-3.714 4.646-.109.136-.211.278-.328.407a1.035 1.035 0 0 1-1.761-.1q-1.045-1.5-2.029-3.044a1.04 1.04 0 1 1 1.722-1.165c.434.604.83 1.229 1.296 1.922z" transform="translate(-4029.035 2478.001)" style="fill:#28dea7"/>
        </g>
    </g>
</svg>
