<svg xmlns="http://www.w3.org/2000/svg" width="17.733" height="12.494" viewBox="0 0 17.733 12.494">
  <path id="youtube-gray" d="M97.435,310.326a2.229,2.229,0,0,0-1.567-1.578,52.655,52.655,0,0,0-6.928-.373,52.651,52.651,0,0,0-6.928.373,2.231,2.231,0,0,0-1.568,1.578,25.1,25.1,0,0,0,0,8.592,2.23,2.23,0,0,0,1.568,1.578,52.646,52.646,0,0,0,6.928.373,52.651,52.651,0,0,0,6.928-.373,2.228,2.228,0,0,0,1.567-1.578,25.057,25.057,0,0,0,0-8.592Zm-10.309,6.932v-5.273l4.635,2.636Z" transform="translate(-80.073 -308.375)" fill="#161429"/>
</svg>
